<?xml version="1.0" standalone="no"?>
<!DOCTYPE svg PUBLIC "-//W3C//DTD SVG 20010904//EN"
 "http://www.w3.org/TR/2001/REC-SVG-20010904/DTD/svg10.dtd">
<svg version="1.0" xmlns="http://www.w3.org/2000/svg"
 width="395.000000pt" height="395.000000pt" viewBox="0 0 395.000000 395.000000"
 preserveAspectRatio="xMidYMid meet">

<g transform="translate(0.000000,395.000000) scale(0.100000,-0.100000)"
fill="#000000" stroke="none">
<path d="M1687 3784 c-1 -1 -47 -4 -102 -7 -55 -3 -111 -7 -125 -8 -20 -1 48
-16 97 -21 7 -1 14 -7 17 -13 5 -15 186 -108 194 -101 3 4 6 39 6 80 l1 73
-43 -1 c-24 0 -44 -2 -45 -2z"/>
<path d="M625 3728 c-110 -5 -202 -14 -203 -19 -2 -5 -9 -6 -15 -2 -19 11 -49
11 -52 -1 -9 -25 -12 -2062 -4 -2084 5 -13 5 -21 0 -18 -5 3 -9 -244 -10 -558
l-1 -564 25 -6 c14 -4 31 -4 37 0 6 4 8 3 4 -4 -4 -7 11 -13 41 -17 27 -4 59
-10 73 -15 28 -9 150 -38 320 -74 149 -32 583 -128 775 -171 82 -18 152 -32
156 -29 4 2 7 401 7 886 0 667 -2 885 -11 890 -9 6 -9 8 1 8 9 0 12 29 11 115
0 85 -4 113 -12 108 -7 -4 -6 0 1 10 8 9 11 21 8 26 -4 5 -2 12 3 16 6 3 7 15
3 28 -5 12 -7 33 -6 47 1 14 -3 28 -10 32 -8 6 -8 8 0 8 7 0 11 35 11 105 1
75 -3 103 -11 98 -6 -4 -5 1 2 10 8 9 11 21 8 26 -4 5 -2 12 3 16 6 3 7 15 3
28 -5 12 -7 48 -6 79 1 40 -2 55 -10 51 -8 -5 -8 -3 0 8 14 19 16 61 2 53 -7
-5 -8 -2 -2 7 4 8 10 22 11 32 3 19 -40 112 -62 134 -16 16 -35 17 -35 3 0 -8
-4 -7 -12 0 -53 44 -103 78 -110 74 -4 -3 -8 0 -8 5 0 6 -9 11 -20 11 -12 0
-34 10 -49 21 -16 12 -34 18 -40 15 -6 -4 -9 -1 -5 7 3 10 -4 17 -20 21 -14 3
-26 13 -26 22 0 16 -59 46 -74 37 -5 -4 -6 -1 -3 5 5 6 -17 14 -60 20 -92 14
-145 13 -136 -1 5 -9 3 -9 -8 -1 -17 14 -82 6 -72 -9 3 -6 1 -7 -6 -3 -6 4
-20 2 -29 -5 -12 -10 -11 -6 3 10 l20 24 -30 -7 c-16 -4 -36 -7 -42 -8 -7 -1
-13 -5 -13 -10 0 -5 -4 -7 -9 -4 -5 4 -11 0 -14 -6 -3 -10 -8 -10 -16 -2 -12
11 -5 44 10 44 5 0 9 6 9 14 0 16 -45 14 -112 -6 -36 -11 -43 -19 -38 -43 1
-5 -2 -6 -7 -2 -4 5 -9 32 -9 60 -1 29 -4 69 -7 90 -6 35 -5 37 21 37 l27 0
-29 15 c-15 8 -35 15 -44 15 -27 0 -9 7 36 14 41 6 61 -8 25 -17 -14 -4 -13
-5 4 -6 18 -1 22 4 20 27 -2 27 -3 28 -27 15 -14 -7 -37 -13 -52 -13 -15 0
-30 -4 -33 -10 -3 -5 -14 -9 -23 -9 -15 1 -15 2 1 6 9 2 17 9 17 14 0 6 -9 8
-19 4 -27 -8 -42 21 -29 54 l9 26 -22 -23 c-16 -18 -18 -27 -10 -35 14 -14 14
-27 0 -27 -5 0 -8 4 -4 9 3 5 0 13 -6 16 -5 4 -8 13 -6 19 3 7 1 19 -4 27 -6
9 -9 1 -9 -28 l0 -42 -39 1 c-24 0 -42 6 -45 14 -7 19 -56 18 -56 -1 0 -8 -9
-15 -20 -15 -24 0 -24 -1 4 85 17 51 28 71 43 73 15 2 23 -10 43 -70 l25 -73
3 73 c3 79 17 93 52 50 l18 -22 27 33 28 33 13 -24 c11 -18 13 -19 14 -5 0 12
8 17 30 17 18 0 29 5 28 12 -2 6 15 22 37 34 24 14 33 24 23 24 -10 0 -18 7
-18 15 0 17 41 30 70 22 11 -3 18 -1 14 4 -3 5 -17 8 -32 7 -15 0 -117 -5
-227 -10z m88 -15 c-7 -2 -19 -2 -25 0 -7 3 -2 5 12 5 14 0 19 -2 13 -5z m70
0 c-7 -2 -21 -2 -30 0 -10 3 -4 5 12 5 17 0 24 -2 18 -5z m-276 -9 c-3 -3 -12
-4 -19 -1 -8 3 -5 6 6 6 11 1 17 -2 13 -5z m-73 -72 c3 -5 -1 -9 -9 -9 -8 0
-12 4 -9 9 3 4 7 8 9 8 2 0 6 -4 9 -8z m444 -413 c7 -12 11 -23 9 -26 -3 -3
-10 5 -17 16 -6 12 -16 21 -22 21 -7 0 -6 -5 2 -15 19 -22 6 -18 -15 5 -18 19
-17 20 6 20 14 0 30 -9 37 -21z m-47 -21 c8 -15 8 -18 0 -14 -6 4 -16 16 -22
28 -8 15 -8 18 0 14 6 -4 16 -16 22 -28z m364 23 c3 -5 2 -12 -3 -15 -5 -3 -9
1 -9 9 0 17 3 19 12 6z m-445 -22 c0 -6 -4 -7 -10 -4 -5 3 -10 11 -10 16 0 6
5 7 10 4 6 -3 10 -11 10 -16z m-23 -15 c2 -7 -6 -10 -21 -7 -14 3 -23 10 -20
15 8 12 36 6 41 -8z m491 -9 c-3 -3 -9 2 -12 12 -6 14 -5 15 5 6 7 -7 10 -15
7 -18z m-458 -46 c15 -28 5 -23 -15 7 -9 15 -12 23 -6 20 6 -4 16 -16 21 -27z
m40 -20 c28 -54 17 -49 -14 6 -13 25 -21 43 -15 40 5 -4 18 -24 29 -46z m34
35 c3 -8 2 -12 -4 -9 -6 3 -10 10 -10 16 0 14 7 11 14 -7z m60 0 c3 -8 2 -12
-4 -9 -6 3 -10 10 -10 16 0 14 7 11 14 -7z m-211 -32 c11 -18 16 -32 13 -32
-3 0 -13 14 -21 31 -9 17 -19 29 -21 26 -3 -3 2 -19 11 -36 8 -17 13 -31 10
-31 -2 0 -14 18 -25 39 -18 36 -18 39 -2 37 9 -2 25 -17 35 -34z m33 -7 c14
-22 19 -33 10 -25 -10 7 -24 27 -33 44 -19 38 -12 32 23 -19z m338 36 c2 -3
-11 -6 -29 -6 -18 0 -31 3 -29 6 2 4 15 7 29 7 14 0 27 -3 29 -7z m-320 -17
c3 -8 2 -12 -4 -9 -6 3 -10 10 -10 16 0 14 7 11 14 -7z m130 -20 c3 -8 2 -12
-4 -9 -6 3 -10 10 -10 16 0 14 7 11 14 -7z m306 12 c0 -2 -7 -7 -16 -10 -8 -3
-12 -2 -9 4 6 10 25 14 25 6z m-315 -45 c-6 -5 -25 10 -25 20 0 5 6 4 14 -3 8
-7 12 -15 11 -17z m-112 -32 c-8 -8 -13 -7 -18 2 -5 8 -4 10 3 5 7 -4 12 -2
12 5 0 7 3 9 7 6 4 -4 2 -12 -4 -18z m137 -14 c0 -5 -5 -3 -10 5 -5 8 -10 20
-10 25 0 6 5 3 10 -5 5 -8 10 -19 10 -25z m-160 -19 c0 -12 -5 -7 -19 24 -11
24 -11 24 3 6 9 -11 16 -24 16 -30z m-30 -1 c0 -5 -5 -3 -10 5 -5 8 -10 20
-10 25 0 6 5 3 10 -5 5 -8 10 -19 10 -25z m74 23 c-5 -8 -2 -9 9 -5 9 3 19 1
23 -5 4 -7 3 -8 -4 -4 -7 4 -12 2 -12 -5 0 -8 -4 -8 -15 1 -13 11 -12 30 1 30
3 0 2 -5 -2 -12z m370 2 c3 -3 -5 -6 -19 -5 -13 0 -26 2 -29 5 -3 3 5 6 19 5
13 0 26 -2 29 -5z m-184 -4 c0 -2 -7 -7 -16 -10 -8 -3 -12 -2 -9 4 6 10 25 14
25 6z m64 -5 c3 -5 -2 -15 -12 -22 -15 -13 -16 -12 -4 3 10 13 10 17 0 21 -9
4 -9 6 -1 6 6 1 14 -3 17 -8z m-363 -28 c-12 -20 -14 -14 -5 12 4 9 9 14 11
11 3 -2 0 -13 -6 -23z m-24 -18 c4 -4 2 -5 -6 0 -10 6 -12 2 -6 -16 8 -27 3
-24 -14 8 -9 17 -8 21 4 19 8 -1 18 -6 22 -11z m114 -2 c13 -16 12 -17 -3 -4
-10 7 -18 15 -18 17 0 8 8 3 21 -13z m-20 -20 c13 -16 12 -17 -3 -4 -10 7 -18
15 -18 17 0 8 8 3 21 -13z m594 7 c3 -6 -1 -7 -9 -4 -18 7 -21 14 -7 14 6 0
13 -4 16 -10z m-721 -16 c3 -8 2 -12 -4 -9 -6 3 -10 10 -10 16 0 14 7 11 14
-7z m100 8 c3 -5 -1 -9 -9 -9 -8 0 -12 4 -9 9 3 4 7 8 9 8 2 0 6 -4 9 -8z
m-140 -28 c3 -8 2 -12 -4 -9 -6 3 -10 10 -10 16 0 14 7 11 14 -7z m51 -62 c-3
-7 0 -23 6 -35 10 -21 10 -22 -6 -2 -8 11 -13 26 -10 33 3 7 0 23 -6 35 -10
21 -10 22 6 2 8 -11 13 -26 10 -33z m366 31 c13 -16 12 -17 -3 -4 -10 7 -18
15 -18 17 0 8 8 3 21 -13z m107 -38 c-3 -3 -9 2 -12 12 -6 14 -5 15 5 6 7 -7
10 -15 7 -18z m-634 -13 c3 -5 -1 -9 -9 -9 -8 0 -12 4 -9 9 3 4 7 8 9 8 2 0 6
-4 9 -8z m346 -42 c6 -11 8 -20 6 -20 -3 0 -10 9 -16 20 -6 11 -8 20 -6 20 3
0 10 -9 16 -20z m155 10 c-3 -5 -12 -10 -18 -10 -7 0 -6 4 3 10 19 12 23 12
15 0z m154 -13 c-2 -1 -13 -9 -24 -17 -19 -14 -19 -14 -6 3 7 9 18 17 24 17 6
0 8 -1 6 -3z m-201 -42 c-3 -3 -9 2 -12 12 -6 14 -5 15 5 6 7 -7 10 -15 7 -18z
m72 -99 c0 -2 -7 -7 -16 -10 -8 -3 -12 -2 -9 4 6 10 25 14 25 6z m-130 -36 c6
-11 8 -20 6 -20 -3 0 -10 9 -16 20 -6 11 -8 20 -6 20 3 0 10 -9 16 -20z m558
-253 c1 -7 2 -135 3 -285 1 -240 -1 -276 -15 -290 -10 -11 -16 -12 -16 -4 0 7
5 12 11 12 5 0 7 5 4 11 -5 6 -11 4 -19 -6 -10 -14 -19 -14 -56 -6 -63 15
-123 13 -207 -4 -73 -15 -74 -15 -245 12 -23 3 -57 -1 -88 -11 -28 -9 -61 -14
-72 -10 -15 5 -19 3 -13 -7 7 -12 5 -12 -6 -1 -11 10 -14 60 -14 242 0 127 3
230 6 230 10 0 5 34 -6 43 -6 5 1 6 15 2 14 -4 51 -9 83 -12 46 -4 57 -9 53
-20 -3 -8 -3 -13 1 -11 128 65 142 68 314 57 32 -2 63 2 70 8 8 6 30 13 49 16
97 15 119 20 114 28 -8 14 5 29 20 23 7 -3 13 -10 14 -17z"/>
<path d="M1375 2347 c4 -27 2 -36 -7 -31 -7 4 -8 3 -4 -5 4 -6 12 -9 17 -6 12
8 11 46 -1 65 -7 11 -8 4 -5 -23z"/>
<path d="M730 2196 c0 -8 -2 -20 -5 -28 -4 -9 5 -14 30 -15 19 -2 35 2 35 7 0
6 5 10 10 10 6 0 10 -6 10 -13 0 -9 11 -14 33 -13 27 1 32 5 32 26 0 23 -4 25
-42 24 -24 0 -43 3 -43 8 0 5 -5 6 -11 3 -6 -4 -8 -13 -5 -21 3 -8 1 -14 -4
-14 -6 0 -10 5 -10 11 0 5 -4 7 -10 4 -6 -3 -7 1 -4 9 3 9 1 16 -5 16 -6 0
-11 -6 -11 -14z m134 -21 c3 -8 1 -15 -4 -15 -6 0 -10 7 -10 15 0 8 2 15 4 15
2 0 6 -7 10 -15z"/>
<path d="M906 2182 c12 -9 24 -24 27 -32 3 -8 6 0 6 18 1 29 -2 32 -26 32
l-28 0 21 -18z"/>
<path d="M890 2151 c0 -12 6 -21 15 -21 8 0 15 4 15 9 0 5 -7 14 -15 21 -13
10 -15 9 -15 -9z"/>
<path d="M720 2105 c0 -8 3 -14 8 -14 32 5 73 -3 70 -13 -3 -8 -19 -12 -41
-10 -36 3 -37 3 -37 -32 0 -20 5 -36 10 -36 6 0 10 11 10 24 0 19 4 23 20 19
11 -3 20 -8 20 -12 0 -4 7 -16 16 -27 15 -19 15 -18 11 4 -3 12 0 35 6 51 15
39 -1 56 -53 59 -30 2 -40 -1 -40 -13z"/>
<path d="M840 2105 c0 -3 9 -23 20 -45 11 -22 20 -48 20 -60 0 -11 5 -20 10
-20 6 0 10 12 10 28 0 15 9 41 20 59 22 37 10 55 -15 21 l-16 -23 -16 23 c-14
20 -33 30 -33 17z"/>
<path d="M960 2092 c0 -12 24 -22 53 -22 19 0 17 -5 -17 -39 -21 -22 -35 -44
-32 -50 9 -14 106 -15 106 -1 0 6 -9 10 -19 10 -51 0 -54 11 -15 51 21 21 35
41 32 44 -11 11 -108 18 -108 7z"/>
<path d="M1090 2081 c0 -13 27 -21 71 -21 40 0 52 13 23 24 -24 9 -94 7 -94
-3z"/>
<path d="M1230 2015 c0 -50 3 -65 14 -65 11 0 14 10 11 40 -3 22 -1 40 3 40 4
0 18 -18 32 -40 36 -58 50 -52 50 20 0 68 -17 82 -22 18 l-3 -43 -24 40 c-47
76 -61 73 -61 -10z"/>
<path d="M1097 2008 c-2 -18 -3 -36 0 -40 6 -11 103 -10 103 1 0 5 -18 11 -40
15 -22 3 -40 11 -40 16 0 6 18 10 40 10 48 0 53 15 9 24 -58 11 -66 8 -72 -26z"/>
<path d="M928 3733 c6 -2 18 -2 25 0 6 3 1 5 -13 5 -14 0 -19 -2 -12 -5z"/>
<path d="M888 3673 c6 -2 18 -2 25 0 6 3 1 5 -13 5 -14 0 -19 -2 -12 -5z"/>
<path d="M888 3643 c6 -2 18 -2 25 0 6 3 1 5 -13 5 -14 0 -19 -2 -12 -5z"/>
<path d="M800 3630 c0 -5 -8 -7 -17 -4 -14 4 -13 2 2 -7 11 -8 23 -14 28 -15
4 -1 10 -2 15 -3 4 -1 0 -6 -8 -11 -12 -7 -12 -10 -1 -10 8 0 11 -6 7 -16 -3
-8 -2 -13 3 -9 5 3 11 -1 13 -7 3 -8 10 -3 18 12 12 23 12 24 -3 11 -20 -16
-23 -1 -4 18 10 10 9 12 -3 9 -8 -2 -15 4 -15 12 0 15 -13 30 -27 30 -5 0 -8
-4 -8 -10z"/>
<path d="M689 3578 c-8 -33 -8 -89 0 -84 8 6 12 86 4 86 -2 0 -3 -1 -4 -2z"/>
<path d="M740 3560 c0 -11 5 -20 11 -20 5 0 7 4 4 10 -4 6 1 7 12 3 16 -6 16
-5 4 10 -18 23 -31 21 -31 -3z"/>
<path d="M886 3573 c5 -5 12 -12 16 -18 4 -6 8 -2 8 8 0 9 -7 17 -17 17 -9 0
-12 -3 -7 -7z"/>
<path d="M470 3535 c0 -8 4 -15 10 -15 5 0 7 7 4 15 -4 8 -8 15 -10 15 -2 0
-4 -7 -4 -15z"/>
<path d="M750 3530 c-13 -9 -13 -10 0 -10 13 0 13 -1 0 -10 -13 -8 -12 -10 4
-10 12 0 16 5 13 14 -3 8 -1 17 6 20 7 2 8 5 2 5 -5 0 -17 -4 -25 -9z"/>
<path d="M821 3514 c0 -11 3 -14 6 -6 3 7 2 16 -1 19 -3 4 -6 -2 -5 -13z"/>
<path d="M3488 3523 c7 -3 16 -2 19 1 4 3 -2 6 -13 5 -11 0 -14 -3 -6 -6z"/>
<path d="M3529 3521 c12 -8 9 -11 -15 -16 -46 -11 -51 -13 -24 -14 26 -1 66
-21 43 -21 -10 0 -13 -79 -13 -359 0 -225 -4 -361 -10 -363 -6 -2 -10 -79 -10
-193 -1 -213 0 -225 12 -225 4 0 8 -4 8 -10 0 -16 -30 1 -31 19 0 12 -2 12 -9
-4 -6 -13 -9 -15 -9 -5 -1 9 -4 11 -9 5 -4 -6 -14 -11 -22 -11 -8 0 -28 -6
-43 -12 -16 -7 -48 -11 -73 -10 -24 0 -47 -2 -50 -5 -10 -9 4 -39 15 -33 5 3
53 8 107 11 62 3 101 10 105 17 5 8 8 5 7 -9 -2 -14 -8 -20 -20 -18 -10 2 -18
0 -18 -5 0 -5 -17 -9 -37 -8 -21 1 -54 -2 -73 -5 -19 -4 -62 -9 -95 -12 -52
-5 -72 -8 -107 -14 -5 0 -8 -8 -8 -16 0 -11 9 -13 43 -9 113 14 238 19 247 10
7 -7 10 -6 10 2 0 7 8 12 18 12 12 0 10 -5 -11 -19 -17 -11 -49 -19 -82 -20
-30 -1 -65 -5 -77 -10 -13 -4 -35 -5 -50 0 -25 7 -28 5 -28 -16 0 -21 3 -23
30 -15 17 5 30 5 30 0 0 -4 17 -4 38 1 54 12 152 11 152 -2 0 -6 -7 -9 -15 -5
-8 3 -15 0 -15 -7 0 -8 -4 -6 -10 3 -8 12 -10 12 -10 1 0 -9 -9 -12 -30 -9
-16 3 -30 2 -30 -1 0 -3 -12 -7 -27 -7 -16 -1 -48 -4 -73 -7 -81 -11 -124 -17
-175 -24 -27 -4 -59 -7 -70 -8 -11 0 -26 -4 -32 -8 -8 -5 -13 -3 -13 3 0 8 -7
9 -17 5 -10 -4 -27 -8 -37 -9 -11 0 -21 -7 -24 -14 -3 -10 12 -11 70 -7 40 3
87 7 103 10 17 2 68 7 115 11 47 4 88 12 92 18 6 8 8 8 8 0 0 -16 80 0 91 17
6 10 9 11 9 2 0 -8 13 -13 30 -13 23 0 28 -4 23 -16 -4 -11 -15 -15 -39 -12
-19 2 -34 0 -34 -5 0 -5 -11 -6 -24 -3 -26 6 -59 -2 -52 -13 2 -3 -15 -6 -38
-7 -61 -1 -116 -13 -116 -26 0 -10 52 -8 135 5 17 3 69 8 116 12 l87 7 3 -45
c2 -25 1 -56 -2 -69 -12 -42 -10 -128 3 -128 9 0 9 -3 0 -12 -10 -10 -17 -10
-33 0 -12 8 -18 9 -14 3 3 -7 -2 -11 -14 -11 -12 0 -21 -7 -21 -15 0 -12 -4
-13 -19 -5 -13 6 -21 6 -23 0 -4 -14 -70 -25 -185 -33 -7 0 -13 -5 -13 -12 0
-6 -14 -10 -32 -10 -18 1 -39 -3 -47 -9 -8 -6 -17 -10 -20 -8 -9 5 -102 -9
-128 -19 -14 -5 -23 -4 -27 4 -2 7 -5 5 -5 -5 -1 -20 18 -35 28 -22 3 5 17 10
31 11 51 3 127 14 197 28 40 8 84 15 98 15 15 0 34 4 43 9 9 5 47 11 85 14 59
5 67 4 67 -12 0 -9 -5 -22 -12 -29 -8 -8 -8 -15 2 -27 7 -8 9 -15 4 -16 -5 0
0 -4 11 -9 19 -9 19 -9 -3 -16 -18 -5 -20 -9 -10 -16 10 -7 9 -11 -5 -22 -10
-8 -19 -24 -20 -35 -1 -14 -6 -20 -15 -16 -10 4 -12 0 -8 -11 3 -9 9 -27 12
-41 6 -22 11 -24 37 -19 29 6 30 5 12 -8 -11 -8 -23 -12 -27 -10 -5 3 -8 0 -8
-7 0 -6 8 -9 19 -6 14 3 18 1 14 -9 -3 -8 -9 -11 -14 -8 -5 3 -9 1 -9 -4 0 -9
-28 -20 -73 -29 -10 -2 -57 -14 -105 -27 -48 -13 -100 -27 -116 -30 -15 -4
-27 -9 -25 -11 4 -3 187 35 307 63 24 6 42 6 42 1 0 -5 -11 -9 -25 -9 -14 0
-25 -5 -25 -12 0 -6 -3 -9 -6 -5 -3 3 -27 -1 -52 -8 -26 -8 -58 -16 -72 -19
-14 -3 -51 -12 -83 -20 -32 -9 -67 -16 -77 -16 -11 0 -20 -4 -20 -9 0 -9 -100
-32 -172 -40 -5 -1 -8 -8 -8 -16 0 -8 6 -12 13 -10 6 2 26 6 42 9 17 3 48 10
70 16 22 6 54 13 70 16 17 3 52 12 79 20 60 17 76 18 76 2 0 -6 -3 -9 -6 -5
-8 7 -67 -13 -76 -27 -6 -8 -8 -8 -8 0 0 7 -18 5 -52 -7 -29 -10 -53 -24 -53
-31 0 -7 7 -11 15 -9 76 21 192 50 223 55 21 3 46 10 56 15 10 6 28 11 42 13
13 2 29 6 34 9 17 9 38 5 41 -9 1 -7 0 -8 -2 -3 -3 5 -15 6 -26 3 -21 -5 -21
-6 -2 -13 18 -7 18 -8 -3 -8 -12 -1 -24 5 -26 12 -3 7 -6 4 -6 -7 -1 -12 -6
-16 -17 -12 -8 3 -13 2 -10 -2 4 -7 -80 -35 -99 -33 -2 0 -20 -6 -39 -14 -18
-8 -36 -11 -40 -8 -3 4 -6 -4 -6 -17 0 -18 3 -20 14 -11 11 9 16 9 22 0 4 -7
3 -9 -4 -5 -5 3 -12 2 -14 -3 -5 -14 -48 -24 -48 -11 0 6 5 8 10 5 6 -3 10 3
10 15 0 20 -1 20 -37 4 -21 -9 -49 -17 -63 -19 -66 -9 -93 -15 -106 -26 -8 -6
-14 -8 -14 -4 0 4 -7 1 -17 -6 -9 -8 -18 -13 -20 -11 -9 6 -21 1 -26 -12 -4
-10 0 -14 14 -13 10 1 19 5 19 9 0 4 7 5 15 2 8 -4 15 -2 15 4 0 6 9 8 20 5
10 -3 26 2 35 11 9 8 22 13 30 10 9 -4 15 0 15 7 0 10 15 15 47 16 l48 2 -25
-19 c-13 -10 -28 -17 -31 -14 -4 2 -19 0 -33 -6 -32 -12 -25 -44 8 -34 30 9
33 14 16 24 -9 6 -10 10 -3 10 6 0 14 -4 17 -9 8 -12 36 -8 109 14 53 15 59
19 54 41 -3 19 0 24 17 26 11 0 26 2 31 3 6 2 15 3 22 4 7 0 10 9 8 18 -3 10
1 5 9 -12 13 -25 15 -27 16 -9 0 16 6 21 23 20 12 -1 28 2 35 7 7 6 12 6 12
-1 0 -5 -7 -12 -15 -16 -8 -3 -15 -10 -15 -16 0 -7 6 -8 19 0 26 13 52 14 31
0 -17 -11 -161 -57 -477 -150 -62 -19 -110 -37 -108 -40 3 -4 55 8 117 27 62
19 129 38 148 43 19 4 85 22 145 38 172 46 170 46 156 28 -10 -12 -9 -15 6
-19 14 -4 13 -5 -4 -6 -13 0 -23 4 -23 9 0 6 -5 10 -11 10 -5 0 -7 -4 -4 -10
3 -5 0 -10 -7 -10 -10 0 -10 -2 -1 -8 6 -4 13 -29 14 -55 3 -46 -4 -67 -18
-53 -4 4 -1 11 7 16 9 6 10 10 3 10 -19 0 -26 -20 -12 -36 16 -20 5 -29 -14
-10 -13 14 -16 14 -21 0 -3 -8 -10 -13 -15 -9 -5 3 -13 -5 -17 -17 -6 -21 -9
-35 -13 -76 0 -8 -6 -10 -13 -6 -10 6 -9 3 0 -8 12 -15 43 -15 40 0 -2 18 3
26 10 15 4 -7 17 -10 29 -7 15 4 19 11 15 26 -3 14 -1 19 6 14 20 -12 14 -90
-8 -114 -23 -25 -19 -28 13 -10 12 7 31 13 42 15 20 3 156 51 160 55 7 9 14
2687 8 2691 -17 10 -108 18 -94 8z m34 -28 c-7 -2 -21 -2 -30 0 -10 3 -4 5 12
5 17 0 24 -2 18 -5z m-33 -1283 c0 -5 -7 -7 -15 -4 -8 4 -15 1 -15 -5 0 -6 -7
-11 -15 -11 -13 0 -14 3 -3 15 15 16 48 20 48 5z m-30 -60 c0 -5 -4 -10 -10
-10 -5 0 -10 5 -10 10 0 6 5 10 10 10 6 0 10 -4 10 -10z m-1 -65 c0 -5 -4 -3
-9 5 -5 8 -9 22 -9 30 0 16 17 -16 18 -35z m21 41 c0 -3 -4 -8 -10 -11 -5 -3
-10 -1 -10 4 0 6 5 11 10 11 6 0 10 -2 10 -4z m-40 -41 c0 -2 -9 -9 -20 -15
-16 -9 -18 -8 -14 5 5 13 34 22 34 10z m-10 -516 c0 -5 -4 -9 -10 -9 -5 0 -10
7 -10 16 0 8 5 12 10 9 6 -3 10 -10 10 -16z m20 -73 c0 -6 -7 -1 -15 10 -8 10
-14 26 -14 34 0 16 28 -28 29 -44z m-3 -132 c-3 -3 -12 -4 -19 -1 -8 3 -5 6 6
6 11 1 17 -2 13 -5z m-65 -68 c-3 -11 -7 -16 -9 -10 -4 11 -63 6 -63 -5 0 -4
-6 -8 -12 -8 -7 0 -25 -4 -40 -8 -16 -4 -28 -3 -28 2 0 6 25 16 55 23 31 7 58
16 60 20 2 3 12 6 23 6 14 0 18 -5 14 -20z m55 18 c-3 -3 -12 -4 -19 -1 -8 3
-5 6 6 6 11 1 17 -2 13 -5z m23 -34 c0 -5 -2 -10 -4 -10 -3 0 -8 5 -11 10 -3
6 -1 10 4 10 6 0 11 -4 11 -10z m-45 -312 c-9 -6 -19 -7 -22 -4 -4 3 -1 6 6 6
7 0 9 4 6 10 -4 6 1 7 11 3 15 -6 15 -7 -1 -15z m55 -13 c0 -8 -2 -15 -4 -15
-2 0 -6 7 -10 15 -3 8 -1 15 4 15 6 0 10 -7 10 -15z m-131 -52 c-1 -38 -1 -38
-9 -9 -8 27 -6 46 6 46 2 0 4 -17 3 -37z m101 25 c0 -7 -4 -19 -9 -27 -6 -9
-8 -5 -8 13 0 14 3 26 8 26 5 0 9 -6 9 -12z m-27 -101 c-3 -5 -10 -4 -15 1 -6
6 -7 16 -3 22 6 9 9 9 16 -1 4 -7 5 -17 2 -22z m12 -46 c-6 -5 -25 10 -25 20
0 5 6 4 14 -3 8 -7 12 -15 11 -17z"/>
<path d="M3498 3473 c7 -3 16 -2 19 1 4 3 -2 6 -13 5 -11 0 -14 -3 -6 -6z"/>
<path d="M820 3465 c0 -5 5 -17 10 -25 5 -8 10 -10 10 -5 0 6 -5 17 -10 25 -5
8 -10 11 -10 5z"/>
<path d="M936 3283 c1 -30 19 -36 64 -23 18 5 32 5 35 -1 7 -10 131 -6 142 5
10 10 -14 29 -39 32 -13 1 -64 5 -113 8 l-91 5 2 -26z"/>
<path d="M2610 2518 c0 -31 4 -45 13 -45 18 0 17 79 0 85 -9 2 -13 -10 -13
-40z"/>
<path d="M2657 2553 c-4 -3 -7 -24 -7 -45 0 -28 4 -38 16 -38 14 0 14 3 3 16
-10 13 -10 17 2 25 11 7 11 9 1 9 -9 0 -11 7 -7 20 6 20 4 25 -8 13z"/>
<path d="M2237 2543 c-4 -3 -7 -25 -7 -47 0 -30 3 -37 10 -26 6 10 10 11 10 3
0 -7 3 -13 8 -13 4 0 7 11 7 25 0 16 -5 23 -12 20 -7 -2 -13 2 -13 10 0 10 6
12 18 8 15 -6 15 -5 3 10 -15 19 -15 19 -24 10z"/>
<path d="M2287 2543 c-11 -10 -8 -81 4 -88 6 -4 13 -4 17 0 4 4 1 10 -5 12
-15 5 -18 63 -3 63 6 0 10 5 10 10 0 11 -13 13 -23 3z"/>
<path d="M2350 2528 c-1 -22 -1 -23 -15 -4 -14 18 -15 17 -14 -25 0 -40 1 -42
11 -19 l11 25 7 -25 c6 -20 8 -15 9 23 1 26 -1 47 -4 47 -3 0 -5 -10 -5 -22z"/>
<path d="M2370 2505 c0 -27 2 -46 4 -44 8 8 10 78 3 85 -4 4 -7 -14 -7 -41z"/>
<path d="M2407 2508 c8 -57 10 -58 15 -4 2 30 -1 46 -8 46 -8 0 -10 -14 -7
-42z"/>
<path d="M2440 2505 c0 -25 5 -45 11 -45 6 0 8 9 4 20 -4 12 -2 20 6 20 8 0 8
4 -2 16 -10 13 -10 17 2 25 11 7 11 9 -3 9 -15 0 -18 -9 -18 -45z"/>
<path d="M2482 2508 c2 -26 9 -43 18 -46 12 -4 13 -2 3 9 -7 7 -13 25 -13 40
0 15 6 30 13 32 7 3 4 6 -6 6 -15 1 -18 -6 -15 -41z"/>
<path d="M2528 2510 c2 -22 5 -40 7 -40 2 0 5 18 7 40 2 24 -1 40 -7 40 -6 0
-9 -16 -7 -40z"/>
<path d="M2562 2513 c-2 -32 2 -43 13 -43 11 0 15 11 14 43 l-2 42 -7 -40 -6
-40 -6 40 -5 40 -1 -42z"/>
<path d="M1944 2513 c0 -16 -3 -38 -7 -50 -7 -19 -5 -23 12 -23 12 0 21 5 21
10 0 6 -5 10 -11 10 -6 0 -8 8 -5 18 2 9 7 27 11 40 4 15 2 22 -8 22 -9 0 -14
-10 -13 -27z"/>
<path d="M1987 2533 c-11 -10 -8 -81 4 -88 16 -11 25 5 9 16 -13 8 -13 10 0
19 13 9 13 11 0 21 -11 8 -12 12 -2 16 6 2 12 9 12 14 0 11 -14 12 -23 2z"/>
<path d="M2031 2488 c1 -45 3 -49 9 -23 6 24 8 26 9 8 2 -45 21 -22 20 25 -1
38 -2 42 -9 22 -5 -16 -8 -19 -9 -8 -1 9 -5 20 -11 23 -6 4 -10 -14 -9 -47z"/>
<path d="M2119 2531 c13 -9 12 -24 -4 -63 -5 -12 -3 -18 6 -18 9 0 15 15 17
45 2 38 0 45 -15 45 -14 0 -15 -2 -4 -9z"/>
<path d="M2192 2515 c3 -13 1 -22 -3 -19 -5 3 -9 -7 -8 -23 0 -15 3 -22 6 -15
4 10 8 10 21 0 13 -11 15 -10 9 12 -4 14 -7 35 -7 48 0 12 -5 22 -11 22 -7 0
-9 -10 -7 -25z"/>
<path d="M2524 2385 c-3 -8 -3 -18 0 -24 3 -5 1 -11 -6 -13 -9 -3 -8 -9 5 -22
16 -17 17 -15 17 28 0 47 -6 58 -16 31z"/>
<path d="M2307 2383 c-10 -10 -8 -81 2 -88 5 -3 12 -1 15 4 4 5 0 11 -6 14
-10 3 -10 7 0 19 10 13 10 17 0 22 -10 5 -10 7 0 12 6 3 12 10 12 15 0 11 -14
12 -23 2z"/>
<path d="M2350 2343 c0 -25 2 -44 4 -42 8 10 13 89 5 89 -5 0 -9 -21 -9 -47z"/>
<path d="M2416 2374 c-3 -9 -6 -30 -5 -47 0 -18 3 -26 6 -18 5 11 7 11 14 0 6
-10 9 -6 9 14 0 16 -4 26 -9 23 -4 -3 -6 6 -3 19 5 28 -3 34 -12 9z"/>
<path d="M2452 2348 c0 -24 3 -37 5 -30 3 6 11 12 18 12 7 0 16 -6 18 -12 3
-7 6 6 6 30 1 44 -15 58 -22 20 l-4 -23 -2 23 c-2 41 -20 23 -19 -20z"/>
<path d="M2126 2364 c-7 -20 9 -50 34 -64 33 -18 40 -11 40 35 0 54 -27 64
-37 14 -4 -22 -8 -27 -14 -17 -5 7 -6 21 -3 31 7 21 -12 23 -20 1z m61 -51
c-3 -10 -5 -2 -5 17 0 19 2 27 5 18 2 -10 2 -26 0 -35z"/>
<path d="M2214 2366 c-9 -25 0 -69 16 -74 12 -4 13 -2 3 9 -16 17 -17 51 -1
67 9 9 9 12 0 12 -7 0 -15 -6 -18 -14z"/>
<path d="M2259 2361 c-1 -9 -3 -26 -4 -39 -1 -12 2 -25 6 -28 5 -3 9 1 9 8 0
11 2 11 9 0 5 -8 8 4 7 31 -1 28 -6 44 -13 44 -7 0 -14 -7 -14 -16z"/>
<path d="M1936 2339 c-3 -17 -6 -41 -6 -53 0 -17 2 -18 10 -6 6 10 10 11 10 3
0 -7 4 -13 9 -13 10 0 3 81 -9 93 -4 5 -10 -6 -14 -24z"/>
<path d="M1981 2318 c1 -35 3 -45 7 -30 8 28 24 30 33 5 5 -11 8 0 8 30 1 30
-3 46 -9 42 -5 -3 -10 -14 -11 -23 0 -12 -3 -11 -9 6 -15 35 -20 26 -19 -30z"/>
<path d="M2050 2325 c0 -48 23 -64 35 -24 9 29 -2 69 -20 69 -11 0 -15 -12
-15 -45z m17 -17 c-2 -13 -4 -5 -4 17 -1 22 1 32 4 23 2 -10 2 -28 0 -40z"/>
<path d="M3239 2303 c-1 -4 -1 -11 -1 -14 1 -8 -63 -3 -78 6 -10 6 -12 4 -7
-9 5 -12 3 -15 -6 -9 -24 15 -57 14 -57 -2 0 -12 13 -15 63 -15 75 0 107 8
107 26 0 14 -19 30 -21 17z"/>
<path d="M2130 2290 c0 -5 5 -10 10 -10 6 0 10 5 10 10 0 6 -4 10 -10 10 -5 0
-10 -4 -10 -10z"/>
<path d="M2927 2259 c-3 -10 -1 -19 4 -19 5 0 9 5 9 11 0 5 5 7 12 3 18 -11
92 -4 100 9 6 9 8 9 8 0 0 -7 5 -13 10 -13 6 0 10 6 10 14 0 11 -17 14 -74 14
-64 0 -75 -2 -79 -19z"/>
<path d="M2890 2261 c0 -6 5 -13 10 -16 6 -3 10 1 10 9 0 9 -4 16 -10 16 -5 0
-10 -4 -10 -9z"/>
<path d="M2696 2235 c-3 -8 -11 -15 -18 -15 -9 0 -9 3 2 11 12 9 12 10 -3 5
-10 -3 -25 -6 -33 -6 -8 0 -14 -7 -14 -15 0 -8 5 -15 10 -15 6 0 10 3 10 8 0
4 27 5 60 4 48 -3 60 -1 60 11 0 20 -25 28 -39 14 -8 -8 -11 -8 -11 1 0 17
-17 15 -24 -3z"/>
<path d="M2781 2224 c0 -11 3 -14 6 -6 3 7 2 16 -1 19 -3 4 -6 -2 -5 -13z"/>
<path d="M2590 2219 c0 -7 -10 -9 -27 -5 -21 5 -24 4 -13 -4 23 -15 60 -12 60
5 0 8 -4 15 -10 15 -5 0 -10 -5 -10 -11z"/>
<path d="M3073 2216 c4 -10 7 -20 7 -22 0 -2 14 -4 31 -4 34 0 37 25 3 25 -10
1 -25 5 -33 10 -11 6 -13 4 -8 -9z"/>
<path d="M2300 2209 c0 -14 14 -18 28 -6 13 10 15 9 9 -5 -3 -10 -2 -18 3 -18
6 0 10 9 10 20 0 15 -6 19 -25 18 -14 -1 -25 -5 -25 -9z"/>
<path d="M2360 2200 c0 -11 5 -20 10 -20 6 0 10 9 10 20 0 11 -4 20 -10 20 -5
0 -10 -9 -10 -20z"/>
<path d="M2426 2211 c-19 -7 -19 -8 2 -13 15 -4 22 -2 22 8 0 8 -1 14 -2 13
-2 0 -12 -4 -22 -8z"/>
<path d="M2477 2199 c-3 -13 -1 -19 6 -16 7 3 11 10 9 17 -3 11 0 11 13 0 8
-7 18 -10 22 -6 3 3 0 6 -8 6 -11 0 -11 2 1 10 12 8 9 10 -11 10 -19 0 -28 -6
-32 -21z"/>
<path d="M3012 2214 c4 -5 -9 -9 -28 -8 -19 1 -34 -2 -34 -7 0 -5 -5 -9 -11
-9 -5 0 -7 5 -4 10 4 6 -5 10 -19 10 -19 0 -26 -5 -26 -20 0 -11 5 -20 10 -20
6 0 10 5 10 11 0 8 4 9 13 0 8 -6 17 -8 20 -4 4 3 32 6 62 5 41 0 55 3 55 14
0 8 -4 14 -9 14 -5 0 -17 3 -27 7 -10 3 -15 2 -12 -3z"/>
<path d="M2109 2190 c-23 -6 -39 -30 -20 -30 6 0 11 6 11 13 0 9 2 9 8 0 5 -8
25 -12 49 -10 23 1 39 5 36 10 -2 4 0 7 6 7 5 0 11 -6 14 -12 3 -7 5 -4 4 7
-1 18 -8 21 -43 20 -24 0 -53 -2 -65 -5z"/>
<path d="M2236 2185 c-3 -8 -3 -15 0 -15 3 0 12 7 20 15 13 13 13 15 1 15 -8
0 -17 -7 -21 -15z"/>
<path d="M1930 2166 c0 -21 4 -24 23 -20 12 3 28 6 35 6 6 1 12 8 12 16 0 8
-6 12 -15 9 -8 -4 -17 -2 -20 3 -12 20 -35 10 -35 -14z"/>
<path d="M2010 2180 c0 -3 9 -11 20 -18 13 -8 20 -8 20 -1 0 5 5 7 10 4 6 -3
10 0 10 7 0 9 -11 14 -30 13 -16 0 -30 -2 -30 -5z"/>
<path d="M2280 2180 c0 -5 5 -10 10 -10 6 0 10 5 10 10 0 6 -4 10 -10 10 -5 0
-10 -4 -10 -10z"/>
<path d="M2632 2162 c-6 -2 -12 -11 -12 -20 0 -13 2 -14 9 -3 5 7 11 9 14 4 3
-5 24 -7 46 -5 23 2 39 8 36 12 -3 5 1 11 7 14 15 6 -81 5 -100 -2z"/>
<path d="M3180 2156 c0 -14 -3 -16 -13 -8 -14 12 -77 13 -77 2 0 -4 -13 -5
-30 -2 -23 3 -30 0 -30 -12 0 -19 26 -22 33 -3 3 7 6 7 6 1 1 -10 129 -8 140
2 3 3 -3 12 -12 21 -16 16 -17 16 -17 -1z"/>
<path d="M2400 2137 c0 -19 5 -23 23 -21 12 1 25 3 30 3 10 1 9 31 -1 31 -4 0
-13 -5 -20 -12 -9 -9 -12 -8 -12 5 0 9 -4 17 -10 17 -5 0 -10 -10 -10 -23z"/>
<path d="M2488 2153 c-10 -2 -18 -11 -18 -19 0 -20 29 -18 37 3 6 15 7 15 15
-3 8 -19 8 -19 5 0 -2 21 -13 26 -39 19z"/>
<path d="M2556 2145 c-4 -11 1 -15 19 -15 16 0 25 6 25 15 0 8 -9 15 -19 15
-10 0 -21 -7 -25 -15z"/>
<path d="M2330 2141 c1 -14 16 -28 33 -28 26 0 20 24 -8 29 -14 3 -25 2 -25
-1z"/>
<path d="M2161 2124 c0 -11 3 -14 6 -6 3 7 2 16 -1 19 -3 4 -6 -2 -5 -13z"/>
<path d="M2190 2127 c0 -10 7 -17 16 -17 8 0 13 -4 10 -9 -4 -5 3 -7 14 -4 20
5 29 33 10 33 -5 0 -10 -5 -10 -12 0 -6 -9 -3 -20 7 -18 16 -20 16 -20 2z"/>
<path d="M2294 2129 c-8 -14 11 -33 25 -25 11 7 4 36 -9 36 -5 0 -12 -5 -16
-11z"/>
<path d="M2897 2134 c-4 -4 -7 -14 -7 -23 0 -11 3 -12 11 -4 6 6 10 16 7 23
-2 6 -7 8 -11 4z"/>
<path d="M2920 2126 c0 -18 14 -28 24 -19 4 4 23 6 42 4 26 -2 34 1 34 13 0
12 -11 16 -50 16 -37 0 -50 -4 -50 -14z"/>
<path d="M1973 2104 c-2 -7 -13 -10 -24 -7 -13 4 -19 0 -19 -11 0 -9 5 -16 11
-16 5 0 7 5 4 10 -3 6 -2 10 4 10 5 0 13 -4 16 -10 9 -14 35 -12 31 3 -1 6 -1
9 1 5 3 -5 19 -8 36 -7 27 0 29 2 12 9 -17 7 -17 9 -2 9 9 1 17 4 17 9 0 12
-82 8 -87 -4z"/>
<path d="M2073 2102 c-8 -20 5 -26 22 -12 9 7 18 10 22 6 3 -3 0 -6 -7 -6 -7
0 -11 -2 -8 -5 10 -11 37 7 31 21 -6 17 -54 14 -60 -4z"/>
<path d="M2530 2089 c0 -6 6 -17 14 -24 12 -12 14 -11 12 10 -1 24 -26 37 -26
14z"/>
<path d="M2400 2058 c0 -17 3 -19 12 -10 7 7 17 12 23 12 5 0 3 -5 -5 -10 -9
-6 -10 -10 -3 -10 6 0 19 8 29 17 13 13 19 14 22 5 5 -17 32 -15 32 2 0 16
-37 18 -55 5 -6 -4 -17 -4 -25 1 -23 15 -30 12 -30 -12z"/>
<path d="M2333 2055 c-3 -9 -3 -18 -1 -21 3 -3 8 4 11 16 6 23 -1 27 -10 5z"/>
<path d="M2371 2054 c0 -11 3 -14 6 -6 3 7 2 16 -1 19 -3 4 -6 -2 -5 -13z"/>
<path d="M2173 2052 c-7 -4 -37 -7 -68 -7 -50 0 -55 -2 -55 -22 0 -27 3 -28
24 -7 10 10 16 11 16 4 0 -7 6 -10 14 -7 9 4 17 -1 19 -11 3 -12 5 -11 6 5 1
19 5 22 29 17 23 -5 28 -2 29 15 2 24 2 23 -14 13z"/>
<path d="M2210 2038 c0 -22 26 -24 34 -2 3 9 6 17 6 18 0 1 -9 2 -20 2 -13 0
-20 -7 -20 -18z"/>
<path d="M2266 2053 c-12 -13 -5 -20 19 -20 29 0 34 22 6 24 -10 1 -22 -1 -25
-4z"/>
<path d="M1973 2032 c-13 -2 -23 -9 -23 -15 0 -7 -4 -6 -10 3 -8 12 -10 10
-10 -8 0 -21 3 -23 37 -17 20 3 40 10 44 16 4 8 8 7 12 -2 4 -10 6 -10 6 2 1
18 -22 27 -56 21z"/>
<path d="M3080 2019 c0 -5 5 -7 10 -4 6 3 10 -2 10 -11 0 -14 3 -15 12 -6 10
10 10 15 -2 22 -20 13 -30 12 -30 -1z"/>
<path d="M3027 2001 c3 -12 11 -17 19 -14 19 7 18 19 -2 27 -22 9 -23 8 -17
-13z"/>
<path d="M2960 2003 c-53 -8 -70 -14 -70 -23 0 -11 92 -6 111 5 10 7 3 26 -9
24 -4 -1 -18 -3 -32 -6z"/>
<path d="M2777 1974 c-7 -8 3 -34 13 -34 9 0 8 26 -1 35 -3 3 -8 2 -12 -1z"/>
<path d="M2740 1963 c0 -5 5 -15 10 -23 8 -12 10 -11 10 8 0 12 -4 22 -10 22
-5 0 -10 -3 -10 -7z"/>
<path d="M2635 1949 c-9 -13 -7 -15 31 -22 28 -5 31 -4 27 13 -6 22 -18 26
-28 10 -3 -5 -12 -10 -18 -10 -7 0 -6 4 3 10 9 6 10 10 3 10 -6 0 -15 -5 -18
-11z"/>
<path d="M2593 1930 c1 -11 4 -20 8 -20 4 0 9 9 12 20 3 13 0 20 -8 20 -8 0
-13 -9 -12 -20z"/>
<path d="M2983 1940 c-5 -5 -11 -7 -39 -9 -9 0 -14 -7 -11 -13 2 -7 11 -11 18
-9 8 2 26 3 42 2 15 -1 27 3 27 8 0 5 12 8 28 7 31 -4 52 2 52 15 0 10 -107 8
-117 -1z"/>
<path d="M2469 1921 c6 -10 7 -22 3 -26 -4 -5 -1 -5 6 -1 17 10 15 46 -3 46
-12 0 -13 -4 -6 -19z"/>
<path d="M2512 1920 c7 -10 14 -18 15 -16 6 6 -9 36 -18 36 -5 0 -4 -9 3 -20z"/>
<path d="M2399 1928 c-5 -16 -4 -46 2 -42 4 2 7 13 6 24 -1 17 -5 26 -8 18z"/>
<path d="M2560 1920 c0 -5 5 -10 11 -10 5 0 7 5 4 10 -3 6 -8 10 -11 10 -2 0
-4 -4 -4 -10z"/>
<path d="M2890 1915 c0 -6 7 -12 15 -12 8 0 15 6 15 12 0 6 -7 12 -15 12 -8 0
-15 -6 -15 -12z"/>
<path d="M2350 1911 c0 -6 4 -13 10 -16 6 -3 7 1 4 9 -7 18 -14 21 -14 7z"/>
<path d="M2233 1890 c-1 -16 1 -17 12 -7 7 6 11 15 8 20 -8 13 -19 7 -20 -13z"/>
<path d="M2296 1894 c-24 -23 -19 -27 9 -8 14 9 25 18 25 20 0 10 -20 3 -34
-12z"/>
<path d="M2153 1880 c-1 -11 4 -20 13 -20 8 0 14 9 14 20 0 11 -6 20 -13 20
-7 0 -13 -9 -14 -20z"/>
<path d="M2647 1870 c-6 -24 8 -36 17 -14 8 22 7 34 -3 34 -5 0 -11 -9 -14
-20z"/>
<path d="M3236 1882 c-9 -15 9 -29 34 -27 14 1 24 5 23 8 -2 4 -3 12 -3 17 0
12 -47 14 -54 2z"/>
<path d="M1985 1871 c-3 -5 0 -13 7 -17 8 -5 6 -10 -8 -15 -18 -7 -18 -8 2 -8
16 -1 22 5 22 24 0 25 -12 33 -23 16z"/>
<path d="M2545 1870 c-3 -5 -1 -10 4 -10 6 0 11 5 11 10 0 6 -2 10 -4 10 -3 0
-8 -4 -11 -10z"/>
<path d="M2574 1864 c3 -9 6 -21 7 -27 0 -7 4 -3 9 8 13 29 12 35 -6 35 -11 0
-14 -5 -10 -16z"/>
<path d="M3150 1858 c0 -16 6 -19 38 -16 39 3 53 30 20 36 -11 2 -18 -3 -18
-13 0 -9 -5 -13 -10 -10 -6 4 -8 10 -6 14 3 4 -1 8 -9 8 -8 0 -15 -9 -15 -19z"/>
<path d="M1950 1860 c-9 -6 -10 -10 -3 -10 6 0 15 5 18 10 8 12 4 12 -15 0z"/>
<path d="M2035 1860 c-3 -5 -1 -10 4 -10 6 0 11 5 11 10 0 6 -2 10 -4 10 -3 0
-8 -4 -11 -10z"/>
<path d="M2075 1860 c-3 -5 -1 -10 4 -10 6 0 11 5 11 10 0 6 -2 10 -4 10 -3 0
-8 -4 -11 -10z"/>
<path d="M2508 1863 c7 -3 16 -2 19 1 4 3 -2 6 -13 5 -11 0 -14 -3 -6 -6z"/>
<path d="M2398 1828 c-5 -28 -4 -29 9 -13 15 22 16 32 4 39 -5 3 -11 -8 -13
-26z"/>
<path d="M2430 1850 c0 -5 4 -10 9 -10 6 0 13 5 16 10 3 6 -1 10 -9 10 -9 0
-16 -4 -16 -10z"/>
<path d="M2471 1844 c0 -11 3 -14 6 -6 3 7 2 16 -1 19 -3 4 -6 -2 -5 -13z"/>
<path d="M3012 1848 c-29 -5 -50 -14 -47 -19 4 -5 0 -7 -7 -4 -7 2 -25 7 -40
9 -23 4 -28 1 -28 -15 0 -18 4 -20 48 -13 26 4 49 10 52 13 3 3 25 7 50 7 75
2 100 8 100 21 0 15 -48 15 -128 1z"/>
<path d="M2372 1836 c7 -8 15 -12 17 -11 5 6 -10 25 -20 25 -5 0 -4 -6 3 -14z"/>
<path d="M2500 1840 c0 -5 7 -7 15 -4 8 4 15 8 15 10 0 2 -7 4 -15 4 -8 0 -15
-4 -15 -10z"/>
<path d="M2286 1823 c-6 -14 -5 -15 5 -6 7 7 10 15 7 18 -3 3 -9 -2 -12 -12z"/>
<path d="M2312 1820 c0 -14 2 -19 5 -12 2 6 2 18 0 25 -3 6 -5 1 -5 -13z"/>
<path d="M3202 1823 c-6 -2 -10 -8 -7 -12 2 -5 -13 -7 -35 -5 -26 1 -40 -2
-40 -9 0 -8 -19 -12 -55 -11 -48 1 -55 -2 -55 -18 0 -16 5 -19 28 -14 15 3 47
8 72 12 25 4 50 8 55 9 6 1 15 3 20 5 6 2 21 3 35 4 18 1 25 7 25 21 0 20 -19
28 -43 18z"/>
<path d="M2110 1808 c0 -7 4 -19 9 -26 6 -10 10 -7 13 12 4 18 1 26 -8 26 -8
0 -14 -6 -14 -12z"/>
<path d="M2158 1813 c7 -3 16 -2 19 1 4 3 -2 6 -13 5 -11 0 -14 -3 -6 -6z"/>
<path d="M2778 1813 c7 -3 16 -2 19 1 4 3 -2 6 -13 5 -11 0 -14 -3 -6 -6z"/>
<path d="M1990 1800 c0 -6 -11 -8 -26 -4 -23 6 -25 4 -22 -16 3 -26 28 -40 28
-17 0 9 -6 18 -12 20 -10 4 -10 6 -1 6 6 1 18 -8 26 -20 17 -23 33 -9 22 19
-5 14 -4 15 6 5 18 -18 39 -16 39 3 0 13 -3 14 -14 5 -10 -8 -16 -9 -21 -1 -8
13 -25 13 -25 0z"/>
<path d="M2067 1790 c3 -11 13 -20 22 -20 13 0 13 2 2 9 -7 5 -10 14 -7 20 4
6 1 11 -7 11 -10 0 -13 -7 -10 -20z"/>
<path d="M2198 1803 c7 -3 16 -2 19 1 4 3 -2 6 -13 5 -11 0 -14 -3 -6 -6z"/>
<path d="M2558 1783 c7 -3 16 -2 19 1 4 3 -2 6 -13 5 -11 0 -14 -3 -6 -6z"/>
<path d="M2945 1765 c-29 -9 -42 -9 -47 -1 -5 6 -8 1 -8 -13 0 -17 4 -22 16
-17 9 3 28 6 42 6 34 0 60 16 47 28 -6 5 -27 4 -50 -3z"/>
<path d="M2358 1753 c7 -3 16 -2 19 1 4 3 -2 6 -13 5 -11 0 -14 -3 -6 -6z"/>
<path d="M2716 1751 c-4 -7 -5 -15 -2 -18 9 -9 19 4 14 18 -4 11 -6 11 -12 0z"/>
<path d="M2288 1743 c6 -2 18 -2 25 0 6 3 1 5 -13 5 -14 0 -19 -2 -12 -5z"/>
<path d="M2668 1745 c-4 -4 -66 -13 -105 -14 -7 -1 -13 -8 -13 -17 0 -11 5
-14 18 -9 9 4 31 9 47 10 17 2 39 6 50 8 11 3 23 6 28 6 4 1 7 6 7 11 0 10
-23 14 -32 5z"/>
<path d="M2228 1733 c7 -3 16 -2 19 1 4 3 -2 6 -13 5 -11 0 -14 -3 -6 -6z"/>
<path d="M2148 1723 c6 -2 18 -2 25 0 6 3 1 5 -13 5 -14 0 -19 -2 -12 -5z"/>
<path d="M2083 1713 c9 -2 23 -2 30 0 6 3 -1 5 -18 5 -16 0 -22 -2 -12 -5z"/>
<path d="M2401 1711 c-17 -11 -6 -31 17 -30 11 0 13 2 4 6 -10 4 -10 8 -1 19
13 16 2 18 -20 5z"/>
<path d="M2440 1704 c0 -14 25 -25 35 -16 4 4 12 7 18 7 5 0 12 5 14 10 2 6
-13 10 -32 10 -20 0 -35 -5 -35 -11z"/>
<path d="M2008 1703 c6 -2 18 -2 25 0 6 3 1 5 -13 5 -14 0 -19 -2 -12 -5z"/>
<path d="M2370 1698 c0 -9 5 -20 10 -23 13 -8 13 5 0 25 -8 13 -10 13 -10 -2z"/>
<path d="M1953 1693 c9 -2 23 -2 30 0 6 3 -1 5 -18 5 -16 0 -22 -2 -12 -5z"/>
<path d="M2330 1689 c-14 -4 -44 -7 -67 -8 -31 -1 -43 -5 -43 -16 0 -18 16
-20 23 -2 4 9 6 9 6 -1 1 -7 5 -11 9 -8 4 3 28 7 51 10 47 6 55 10 50 24 -2 4
-15 5 -29 1z"/>
<path d="M2756 1690 c-60 -8 -60 -31 0 -25 26 3 49 7 52 10 13 12 -16 21 -52
15z"/>
<path d="M2595 1661 c-8 -21 0 -24 54 -16 31 4 51 12 51 19 0 19 -98 16 -105
-3z"/>
<path d="M2175 1659 c-12 -19 5 -23 22 -6 16 16 16 17 1 17 -9 0 -20 -5 -23
-11z"/>
<path d="M2076 1645 c-4 -10 1 -15 14 -15 13 0 18 5 14 15 -4 8 -10 15 -14 15
-4 0 -10 -7 -14 -15z"/>
<path d="M2117 1644 c3 -8 12 -13 20 -10 8 3 17 6 19 6 2 0 4 5 4 10 0 6 -11
10 -25 10 -18 0 -23 -4 -18 -16z"/>
<path d="M2555 1649 c-4 -6 -5 -13 -2 -16 7 -7 27 6 27 18 0 12 -17 12 -25 -2z"/>
<path d="M3180 1651 c0 -5 -11 -11 -25 -13 -14 -3 -25 -1 -25 6 0 8 -2 8 -8 0
-4 -6 -22 -15 -39 -19 -18 -3 -33 -12 -33 -18 0 -8 -3 -7 -9 2 -6 10 -10 10
-16 1 -4 -6 -5 -13 -3 -16 8 -7 168 19 168 27 0 5 7 6 15 3 10 -4 15 0 15 15
0 14 -6 21 -20 21 -11 0 -20 -4 -20 -9z"/>
<path d="M2020 1637 c0 -8 3 -16 6 -20 10 -10 34 5 34 22 0 14 -2 14 -10 1 -6
-10 -10 -11 -10 -2 0 6 -4 12 -10 12 -5 0 -10 -6 -10 -13z"/>
<path d="M2477 1643 c-16 -15 -6 -30 18 -25 29 5 34 32 7 32 -10 0 -22 -3 -25
-7z"/>
<path d="M2531 1634 c0 -11 3 -14 6 -6 3 7 2 16 -1 19 -3 4 -6 -2 -5 -13z"/>
<path d="M1930 1618 c0 -10 5 -18 11 -18 5 0 7 5 4 10 -4 7 2 9 19 4 20 -5 26
-2 26 10 0 11 -9 15 -30 13 -21 -1 -30 -7 -30 -19z"/>
<path d="M2001 1624 c0 -11 3 -14 6 -6 3 7 2 16 -1 19 -3 4 -6 -2 -5 -13z"/>
<path d="M2407 1633 c-3 -5 -2 -15 2 -22 7 -10 10 -10 16 -1 4 6 3 16 -3 22
-5 5 -12 6 -15 1z"/>
<path d="M2290 1613 c0 -18 6 -23 28 -23 42 0 72 11 72 26 0 8 -5 14 -11 14
-5 0 -7 -4 -4 -10 4 -7 -3 -7 -19 0 -17 6 -26 6 -26 0 0 -6 5 -10 12 -10 6 0
8 -3 5 -6 -4 -4 -13 -1 -22 6 -8 7 -15 9 -15 4 0 -5 -5 -2 -10 6 -8 12 -10 11
-10 -7z"/>
<path d="M2990 1609 c0 -5 -4 -7 -10 -4 -5 3 -10 -1 -10 -10 0 -22 34 -15 38
8 2 9 -1 17 -7 17 -6 0 -11 -5 -11 -11z"/>
<path d="M2238 1605 c-2 -3 -18 -5 -36 -7 -27 -2 -32 -6 -31 -28 0 -14 3 -19
6 -12 2 6 18 12 34 12 17 0 28 4 25 9 -3 4 6 6 19 3 17 -3 25 0 25 10 0 12
-32 22 -42 13z"/>
<path d="M2913 1593 c-16 -3 -23 -11 -22 -26 0 -12 3 -16 6 -9 2 6 18 12 34
12 19 0 29 5 29 15 0 15 -6 16 -47 8z"/>
<path d="M2117 1583 c-16 -15 -6 -30 18 -25 29 5 34 32 7 32 -10 0 -22 -3 -25
-7z"/>
<path d="M2545 1582 c-2 -3 -15 -6 -27 -7 -37 -4 -38 -4 -38 -16 0 -8 11 -9
33 -4 17 4 47 7 65 8 40 1 43 23 2 23 -17 0 -32 -2 -35 -4z"/>
<path d="M2059 1576 c-4 -4 -80 -15 -111 -15 -11 -1 -18 -9 -18 -21 0 -16 5
-19 23 -16 12 3 48 10 80 16 37 8 57 16 57 26 0 13 -21 20 -31 10z"/>
<path d="M2400 1555 c0 -8 5 -15 10 -15 6 0 10 7 10 15 0 8 -4 15 -10 15 -5 0
-10 -7 -10 -15z"/>
<path d="M2440 1555 c0 -8 5 -15 10 -15 6 0 10 7 10 15 0 8 -4 15 -10 15 -5 0
-10 -7 -10 -15z"/>
<path d="M2324 1535 c-9 -22 1 -29 15 -11 8 10 9 16 1 21 -5 3 -13 -1 -16 -10z"/>
<path d="M2360 1534 c0 -14 3 -14 15 -4 8 7 15 14 15 16 0 2 -7 4 -15 4 -8 0
-15 -7 -15 -16z"/>
<path d="M2738 1543 c7 -3 16 -2 19 1 4 3 -2 6 -13 5 -11 0 -14 -3 -6 -6z"/>
<path d="M3349 1545 c-3 -13 -6 -21 -12 -35 -3 -8 -7 -24 -9 -35 -3 -21 -29
-28 -35 -9 -2 7 3 19 12 27 18 19 19 33 3 43 -6 4 -8 3 -5 -3 4 -6 0 -16 -8
-23 -19 -16 -19 -64 -1 -79 11 -10 16 -8 24 5 8 15 13 16 25 6 12 -10 16 -10
21 3 3 8 2 15 -3 15 -11 0 -8 43 4 53 6 6 6 10 -3 14 -6 2 -10 9 -6 14 3 5 3
9 0 9 -3 0 -7 -2 -7 -5z"/>
<path d="M3377 1539 c7 -7 15 -10 18 -7 3 3 -2 9 -12 12 -14 6 -15 5 -6 -5z"/>
<path d="M2236 1528 c5 -7 2 -9 -9 -5 -8 3 -21 -1 -28 -9 -14 -17 -6 -29 13
-18 7 5 20 7 29 6 9 -2 29 2 44 8 23 9 26 13 15 23 -10 9 -13 9 -17 0 -3 -9
-12 -9 -29 -3 -19 7 -23 7 -18 -2z"/>
<path d="M2678 1533 c7 -3 16 -2 19 1 4 3 -2 6 -13 5 -11 0 -14 -3 -6 -6z"/>
<path d="M3196 1514 c-21 -20 -20 -34 2 -50 16 -13 16 -14 0 -8 -12 4 -18 1
-18 -10 0 -19 33 -22 47 -3 15 19 24 49 13 42 -6 -3 -10 -2 -10 4 0 5 5 13 10
16 13 8 3 25 -15 25 -7 0 -21 -7 -29 -16z"/>
<path d="M2158 1513 c-24 -6 -23 -23 2 -23 11 0 20 7 20 15 0 8 -1 14 -2 14
-2 -1 -11 -3 -20 -6z"/>
<path d="M2114 1501 c3 -4 -6 -6 -19 -3 -20 3 -25 0 -25 -16 0 -19 3 -20 30
-11 28 10 43 39 19 39 -5 0 -8 -4 -5 -9z"/>
<path d="M2005 1488 c-21 -5 -45 -6 -51 -4 -11 4 -24 -14 -24 -34 0 -4 27 -2
60 5 32 7 62 10 65 7 3 -3 5 2 5 11 0 22 -9 25 -55 15z"/>
<path d="M3073 1493 c-7 -2 -13 -12 -13 -20 0 -13 3 -13 15 -3 9 7 18 10 22 6
3 -3 1 -6 -5 -6 -7 0 -12 -7 -12 -15 0 -8 5 -15 11 -15 5 0 7 -4 4 -10 -8 -14
-26 -13 -22 1 1 6 -3 13 -9 16 -7 2 -10 -5 -7 -20 4 -21 9 -24 31 -18 23 6 27
13 27 47 0 39 -13 50 -42 37z"/>
<path d="M2418 1483 c7 -3 16 -2 19 1 4 3 -2 6 -13 5 -11 0 -14 -3 -6 -6z"/>
<path d="M2616 1464 c-8 -22 -8 -24 8 -24 19 0 28 27 11 34 -7 2 -16 -2 -19
-10z"/>
<path d="M2258 1453 c7 -3 16 -2 19 1 4 3 -2 6 -13 5 -11 0 -14 -3 -6 -6z"/>
<path d="M2558 1452 c-16 -2 -28 -8 -28 -13 0 -6 -7 -6 -19 1 -26 13 -31 13
-31 -3 0 -11 35 -15 65 -7 6 1 20 1 33 0 12 -1 22 3 22 9 0 14 -11 17 -42 13z"/>
<path d="M3381 1444 c0 -11 3 -14 6 -6 3 7 2 16 -1 19 -3 4 -6 -2 -5 -13z"/>
<path d="M2198 1443 c7 -3 16 -2 19 1 4 3 -2 6 -13 5 -11 0 -14 -3 -6 -6z"/>
<path d="M2148 1433 c6 -2 18 -2 25 0 6 3 1 5 -13 5 -14 0 -19 -2 -12 -5z"/>
<path d="M2098 1423 c6 -2 18 -2 25 0 6 3 1 5 -13 5 -14 0 -19 -2 -12 -5z"/>
<path d="M2333 1418 c-32 -15 -29 -37 4 -34 19 2 27 9 28 25 2 24 -1 24 -32 9z"/>
<path d="M2382 1413 c4 -19 40 -20 46 -2 2 5 8 7 13 3 5 -3 9 0 9 5 0 15 -23
14 -38 -1 -9 -9 -12 -9 -12 0 0 7 -5 12 -11 12 -6 0 -9 -8 -7 -17z"/>
<path d="M2975 1420 c-4 -6 -10 -8 -15 -5 -5 3 -12 1 -15 -5 -4 -6 -15 -8 -26
-5 -14 5 -19 2 -19 -11 0 -14 6 -16 38 -10 20 3 43 6 50 6 6 0 12 9 12 20 0
21 -15 27 -25 10z"/>
<path d="M2043 1413 c9 -2 23 -2 30 0 6 3 -1 5 -18 5 -16 0 -22 -2 -12 -5z"/>
<path d="M2720 1405 c-17 -20 9 -21 36 0 19 14 19 14 -2 15 -12 0 -27 -7 -34
-15z"/>
<path d="M3190 1410 c-8 -5 -11 -12 -8 -16 10 -9 38 3 38 16 0 12 -10 13 -30
0z"/>
<path d="M1998 1403 c7 -3 16 -2 19 1 4 3 -2 6 -13 5 -11 0 -14 -3 -6 -6z"/>
<path d="M2636 1394 c-3 -7 -2 -15 1 -18 7 -7 43 12 43 22 0 13 -39 9 -44 -4z"/>
<path d="M1938 1393 c6 -2 18 -2 25 0 6 3 1 5 -13 5 -14 0 -19 -2 -12 -5z"/>
<path d="M2253 1393 c-13 -2 -23 -11 -23 -19 0 -9 5 -12 11 -8 7 4 21 7 32 8
11 1 22 7 25 14 4 12 -4 13 -45 5z"/>
<path d="M2584 1386 c-10 -8 -24 -12 -31 -9 -7 3 -13 0 -13 -7 0 -6 -4 -8 -10
-5 -5 3 -10 1 -10 -6 0 -7 8 -9 23 -5 12 4 34 9 50 12 27 6 35 18 18 28 -4 3
-16 -1 -27 -8z"/>
<path d="M3080 1388 c-25 -6 -39 -13 -32 -15 18 -7 80 6 87 17 7 11 5 11 -55
-2z"/>
<path d="M2168 1379 c-7 -4 -16 -5 -20 -3 -4 3 -8 1 -8 -4 0 -5 -13 -8 -30 -7
-23 1 -30 -2 -30 -17 0 -14 5 -17 23 -13 31 8 59 13 75 14 7 1 11 5 8 10 -4 5
3 7 14 4 13 -3 20 0 20 9 0 14 -33 19 -52 7z"/>
<path d="M3195 1370 c4 -6 11 -8 16 -5 14 9 11 15 -7 15 -8 0 -12 -5 -9 -10z"/>
<path d="M2462 1363 c-14 -3 -20 -9 -15 -16 4 -7 -2 -5 -12 3 -14 11 -19 12
-22 3 -3 -7 -17 -13 -33 -13 -35 0 -60 -9 -60 -21 0 -10 36 -8 55 2 6 3 23 6
40 7 16 1 33 6 38 11 5 5 16 7 23 4 8 -3 14 0 14 7 0 6 5 8 10 5 6 -3 10 -1
10 4 0 11 -7 12 -48 4z"/>
<path d="M2020 1341 c0 -23 33 -30 45 -10 8 13 6 15 -22 23 -19 6 -23 3 -23
-13z"/>
<path d="M1936 1343 c-3 -3 -6 -15 -6 -26 0 -14 4 -17 18 -12 9 4 25 7 34 7 9
0 19 6 22 15 5 11 1 14 -12 11 -11 -3 -26 -2 -34 3 -8 5 -18 6 -22 2z"/>
<path d="M2705 1343 c-43 -9 -49 -13 -37 -25 8 -8 15 -8 26 1 8 7 20 10 26 6
5 -3 10 1 10 9 0 9 -1 15 -2 15 -2 -1 -12 -3 -23 -6z"/>
<path d="M2278 1323 c-10 -2 -18 -9 -18 -14 0 -15 43 -7 48 9 4 12 0 13 -30 5z"/>
<path d="M2533 1306 c-23 -5 -45 -16 -47 -23 -7 -16 -4 -16 63 2 30 8 58 12
63 9 4 -3 8 1 8 9 0 17 -22 17 -87 3z"/>
<path d="M2139 1294 c-19 -7 -48 -13 -64 -13 -17 -1 -36 -6 -43 -13 -9 -9 -12
-9 -12 2 0 10 -3 11 -11 3 -6 -6 -18 -9 -25 -6 -8 3 -14 0 -14 -5 0 -6 -9 -9
-20 -7 -14 3 -20 -2 -20 -14 0 -14 6 -17 30 -13 16 2 28 7 26 11 -2 3 12 6 32
6 21 1 46 5 57 9 11 5 28 8 38 7 9 -1 17 1 17 6 0 4 10 9 23 9 61 4 87 10 87
21 0 14 -57 13 -101 -3z"/>
<path d="M2441 1274 c0 -11 3 -14 6 -6 3 7 2 16 -1 19 -3 4 -6 -2 -5 -13z"/>
<path d="M3058 1283 c7 -3 16 -2 19 1 4 3 -2 6 -13 5 -11 0 -14 -3 -6 -6z"/>
<path d="M2396 1265 c4 -8 10 -15 14 -15 4 0 10 7 14 15 4 10 -1 15 -14 15
-13 0 -18 -5 -14 -15z"/>
<path d="M3018 1273 c7 -3 16 -2 19 1 4 3 -2 6 -13 5 -11 0 -14 -3 -6 -6z"/>
<path d="M2350 1255 c0 -8 7 -15 15 -15 8 0 15 7 15 15 0 8 -7 15 -15 15 -8 0
-15 -7 -15 -15z"/>
<path d="M2968 1263 c7 -3 16 -2 19 1 4 3 -2 6 -13 5 -11 0 -14 -3 -6 -6z"/>
<path d="M2295 1253 c-11 -3 -23 -10 -27 -17 -6 -8 -8 -7 -8 2 0 6 -4 12 -10
12 -5 0 -10 -7 -10 -16 0 -13 6 -15 33 -9 17 4 38 7 45 8 6 0 12 6 12 14 0 14
-2 14 -35 6z"/>
<path d="M2175 1229 c-21 -5 -45 -7 -52 -5 -8 3 -13 -2 -13 -14 0 -16 6 -18
38 -14 63 7 82 14 82 29 0 17 1 17 -55 4z"/>
<path d="M2053 1199 c-40 -12 -43 -29 -5 -27 29 2 52 15 52 29 0 11 -4 10 -47
-2z"/>
<path d="M2728 1203 c7 -3 16 -2 19 1 4 3 -2 6 -13 5 -11 0 -14 -3 -6 -6z"/>
<path d="M2990 1183 c-19 -6 -42 -12 -51 -12 -9 -1 -23 -8 -30 -18 -13 -15
-11 -16 16 -9 17 3 35 8 40 10 6 1 27 6 48 11 20 4 37 13 37 19 0 16 -15 15
-60 -1z"/>
<path d="M1977 1182 c-15 -2 -25 -8 -22 -13 3 -5 -1 -6 -9 -3 -9 4 -16 1 -16
-6 0 -9 11 -11 36 -7 20 3 39 8 41 11 12 11 -4 21 -30 18z"/>
<path d="M2270 1169 c0 -5 -4 -7 -10 -4 -5 3 -10 1 -10 -4 0 -6 7 -11 15 -11
8 0 15 7 15 15 0 8 -2 15 -5 15 -3 0 -5 -5 -5 -11z"/>
<path d="M2228 1164 c-3 -3 -16 -7 -29 -8 -59 -9 -89 -20 -89 -32 0 -16 2 -17
58 -3 41 9 80 34 70 44 -3 3 -7 2 -10 -1z"/>
<path d="M2720 1143 c-14 -10 -20 -11 -15 -4 5 10 2 12 -11 8 -11 -4 -31 -9
-46 -13 -35 -8 -37 -30 -3 -30 16 0 25 6 25 16 0 11 2 12 8 3 6 -10 16 -10 45
-1 20 6 37 15 37 19 0 17 -18 17 -40 2z"/>
<path d="M2060 1122 c0 -10 7 -19 15 -19 8 0 15 9 15 19 0 10 -7 18 -15 18 -8
0 -15 -8 -15 -18z"/>
<path d="M1980 1107 c0 -5 -11 -6 -25 -3 -21 5 -25 3 -25 -14 0 -19 4 -20 38
-14 20 4 44 7 52 7 14 0 30 14 30 28 0 4 -16 6 -35 6 -19 -1 -35 -5 -35 -10z"/>
<path d="M2580 1105 c0 -8 7 -15 15 -15 8 0 15 7 15 15 0 8 -7 15 -15 15 -8 0
-15 -7 -15 -15z"/>
<path d="M2433 1086 c-31 -15 -29 -34 2 -32 19 1 25 7 25 24 0 12 -1 21 -2 21
-2 -1 -13 -6 -25 -13z"/>
<path d="M2473 1085 c0 -19 17 -24 45 -14 25 10 30 29 6 29 -8 0 -12 -5 -8
-11 5 -8 1 -8 -14 0 -27 14 -29 14 -29 -4z"/>
<path d="M2750 1074 c0 -14 3 -14 15 -4 8 7 15 14 15 16 0 2 -7 4 -15 4 -8 0
-15 -7 -15 -16z"/>
<path d="M3355 1080 c-3 -6 1 -7 9 -4 18 7 21 14 7 14 -6 0 -13 -4 -16 -10z"/>
<path d="M2663 1067 c-3 -5 -13 -7 -22 -4 -17 4 -47 -20 -37 -30 10 -10 129
21 133 34 5 13 -65 13 -74 0z"/>
<path d="M2998 1068 c-16 -5 -28 -17 -28 -25 0 -12 7 -14 38 -8 44 8 44 8 36
29 -7 18 -8 18 -46 4z"/>
<path d="M2330 1051 c-47 -12 -66 -22 -68 -35 -3 -13 0 -16 10 -10 7 5 18 9
23 10 45 7 94 27 99 39 3 8 4 15 3 14 -1 0 -31 -9 -67 -18z"/>
<path d="M2930 1052 c-16 -5 -30 -21 -30 -35 0 -7 49 -2 55 5 8 10 -12 34 -25
30z"/>
<path d="M2537 1033 c-4 -3 -7 -11 -7 -17 0 -6 5 -5 12 2 6 6 9 14 7 17 -3 3
-9 2 -12 -2z"/>
<path d="M2567 1033 c-4 -3 -7 -11 -7 -17 0 -6 5 -5 12 2 6 6 9 14 7 17 -3 3
-9 2 -12 -2z"/>
<path d="M2227 1023 c-13 -13 -7 -32 8 -27 8 4 15 12 15 20 0 15 -12 19 -23 7z"/>
<path d="M2148 1008 c-35 -8 -48 -15 -48 -28 0 -16 3 -16 53 -2 32 8 54 20 54
28 0 8 -3 13 -6 13 -3 -1 -27 -6 -53 -11z"/>
<path d="M2480 1005 c0 -17 2 -18 24 -9 18 7 12 24 -10 24 -8 0 -14 -7 -14
-15z"/>
<path d="M2415 1000 c-4 -6 -3 -16 3 -22 6 -6 12 -6 17 2 4 6 3 16 -3 22 -6 6
-12 6 -17 -2z"/>
<path d="M2010 962 c0 -19 4 -22 28 -16 36 9 42 13 42 29 0 9 -11 13 -35 12
-29 -2 -35 -6 -35 -25z"/>
<path d="M2345 981 c-11 -5 -23 -7 -27 -4 -4 2 -5 -3 -2 -11 3 -9 9 -16 14
-16 18 0 70 23 70 31 0 11 -27 11 -55 0z"/>
<path d="M1930 959 c0 -5 5 -7 10 -4 6 3 10 8 10 11 0 2 -4 4 -10 4 -5 0 -10
-5 -10 -11z"/>
<path d="M1951 949 c-24 -20 -23 -38 1 -23 7 5 20 9 28 9 8 0 16 8 18 18 5 23
-17 21 -47 -4z"/>
<path d="M2260 960 c-8 -5 -25 -10 -37 -10 -19 0 -23 -5 -22 -27 0 -16 3 -22
6 -15 2 6 11 12 19 12 9 0 13 4 10 9 -3 4 5 7 18 6 29 -4 51 9 42 24 -9 13
-16 14 -36 1z"/>
<path d="M2548 961 c-21 -4 -25 -10 -18 -20 6 -11 12 -12 22 -4 14 12 18 13
44 13 8 0 12 5 9 10 -7 11 -15 11 -57 1z"/>
<path d="M2493 935 c0 -8 4 -15 9 -15 4 0 8 7 8 15 0 8 -4 15 -8 15 -5 0 -9
-7 -9 -15z"/>
<path d="M2163 932 c-13 -2 -23 -10 -23 -18 0 -18 11 -18 36 0 22 17 18 23
-13 18z"/>
<path d="M2445 933 c-11 -2 -27 -7 -35 -10 -8 -4 -22 -7 -30 -7 -25 -2 -56
-24 -46 -33 5 -4 11 -2 13 5 3 6 9 10 14 7 10 -7 89 14 103 27 13 11 5 15 -19
11z"/>
<path d="M3311 914 c0 -11 3 -14 6 -6 3 7 2 16 -1 19 -3 4 -6 -2 -5 -13z"/>
<path d="M2030 914 c0 -5 -7 -19 -15 -30 -14 -18 -15 -18 -9 0 6 16 4 17 -12
8 -11 -6 -29 -10 -39 -9 -15 2 -21 -5 -22 -23 l-3 -25 12 25 c9 21 12 22 15 7
4 -15 7 -16 21 -5 9 8 13 8 9 1 -5 -7 9 -6 41 4 26 8 59 18 74 22 18 4 25 10
20 18 -6 9 -17 10 -42 3 -25 -7 -36 -6 -42 3 -4 7 -8 7 -8 1z"/>
<path d="M2290 880 c0 -5 4 -10 9 -10 6 0 13 5 16 10 3 6 -1 10 -9 10 -9 0
-16 -4 -16 -10z"/>
<path d="M2228 869 c-29 -16 -20 -29 12 -18 17 6 30 15 30 20 0 12 -21 11 -42
-2z"/>
<path d="M2148 853 c-19 -5 -25 -33 -7 -33 5 0 8 4 5 8 -2 4 7 8 21 7 15 0 28
7 30 15 4 13 3 13 -6 0 -7 -10 -11 -11 -11 -2 0 12 -3 13 -32 5z"/>
<path d="M2085 841 c3 -6 -10 -13 -30 -17 -21 -4 -35 -12 -35 -21 0 -10 6 -13
18 -8 9 3 29 9 45 12 33 7 45 22 26 34 -19 12 -32 11 -24 0z"/>
<path d="M1931 791 c-1 -21 2 -23 30 -17 17 3 35 6 40 6 5 0 9 7 9 16 0 13 -6
15 -27 9 -15 -3 -31 -11 -34 -17 -4 -7 -9 -3 -12 8 -4 15 -5 14 -6 -5z"/>
<path d="M2471 711 c-11 -7 -11 -9 0 -13 7 -2 -8 -10 -34 -17 -35 -10 -47 -18
-47 -33 0 -15 5 -18 22 -12 12 3 29 15 37 24 18 21 61 36 61 22 0 -5 -10 -13
-22 -16 l-23 -6 23 -20 24 -20 -29 -11 c-18 -7 -33 -7 -44 -1 -27 17 -42 -2
-19 -23 14 -13 24 -15 28 -9 4 6 31 19 60 28 37 13 52 23 52 36 0 13 -5 17
-20 13 -14 -4 -20 0 -20 11 0 9 8 16 18 16 14 0 12 4 -8 20 -14 10 -26 15 -28
10 -2 -6 -8 -10 -13 -10 -6 0 -7 5 -4 10 8 12 4 12 -14 1z"/>
<path d="M2233 638 c-19 -7 -33 -18 -33 -27 0 -14 2 -14 10 -1 7 11 8 6 4 -16
-3 -17 -2 -34 4 -38 5 -3 10 0 9 7 0 6 1 23 2 37 l3 25 8 -25 c8 -24 8 -24 9
-2 1 12 5 22 10 22 5 0 7 -10 4 -22 -4 -19 -3 -20 6 -8 12 17 15 61 4 59 -5
-1 -23 -6 -40 -11z"/>
<path d="M2455 640 c3 -5 1 -10 -5 -10 -6 0 -9 -4 -6 -9 3 -5 15 -7 26 -4 16
4 18 8 9 19 -13 16 -33 19 -24 4z"/>
<path d="M2133 602 c-7 -7 -13 -25 -12 -40 l1 -27 14 30 c11 22 14 24 10 8 -2
-13 0 -23 5 -23 5 0 9 9 9 21 0 11 5 17 10 14 6 -4 8 -11 5 -16 -4 -5 -2 -9 4
-9 15 0 23 18 16 39 -7 22 -41 24 -62 3z"/>
<path d="M1978 592 l-48 -16 0 -103 c0 -115 -3 -111 75 -84 l50 18 2 101 c2
115 5 112 -79 84z m51 -16 c-14 -14 -79 -32 -79 -22 0 9 49 32 72 33 18 2 19
0 7 -11z m7 -79 c1 -26 -2 -47 -7 -47 -5 0 -9 7 -9 15 0 24 -16 17 -29 -12
-10 -22 -14 -24 -21 -13 -15 28 -23 90 -11 90 6 0 11 -10 12 -22 0 -23 1 -22
12 2 26 56 52 50 53 -13z m-51 -97 c-27 -12 -43 -12 -25 0 8 5 22 9 30 9 10 0
8 -3 -5 -9z"/>
<path d="M2313 590 c-1 -11 2 -18 8 -15 11 7 12 35 1 35 -4 0 -8 -9 -9 -20z"/>
<path d="M2275 570 c-3 -6 1 -7 9 -4 18 7 21 14 7 14 -6 0 -13 -4 -16 -10z"/>
<path d="M2255 540 c3 -5 8 -10 11 -10 2 0 4 5 4 10 0 6 -5 10 -11 10 -5 0 -7
-4 -4 -10z"/>
<path d="M2207 523 c-17 -16 -5 -29 23 -25 17 2 30 8 30 13 0 5 -7 5 -17 2
-11 -4 -14 -3 -9 5 8 13 -16 17 -27 5z"/>
<path d="M1988 358 c-45 -15 -58 -24 -58 -40 0 -15 4 -18 17 -14 9 4 39 14 65
23 35 11 48 20 48 34 0 23 0 23 -72 -3z m62 -2 c0 -7 -101 -38 -106 -33 -3 3
14 12 38 20 44 16 68 20 68 13z"/>
</g>
</svg>
