<?xml version="1.0" standalone="no"?>
<!DOCTYPE svg PUBLIC "-//W3C//DTD SVG 20010904//EN"
 "http://www.w3.org/TR/2001/REC-SVG-20010904/DTD/svg10.dtd">
<svg version="1.0" xmlns="http://www.w3.org/2000/svg"
 width="395.000000pt" height="395.000000pt" viewBox="0 0 395.000000 395.000000"
 preserveAspectRatio="xMidYMid meet">

<g transform="translate(0.000000,395.000000) scale(0.100000,-0.100000)"
fill="#000000" stroke="none">
<path d="M1560 3854 c-60 -21 -116 -77 -139 -139 -11 -28 -35 -119 -54 -203
-28 -117 -49 -179 -92 -271 -70 -149 -75 -186 -47 -347 12 -65 28 -162 37
-214 9 -52 22 -129 30 -170 16 -83 20 -261 6 -276 -27 -30 -29 -73 -7 -221
l23 -150 -23 -51 c-20 -47 -22 -63 -18 -179 6 -178 3 -174 128 -206 57 -15
125 -27 150 -27 39 0 46 3 46 20 0 16 7 20 30 20 28 0 30 -3 31 -37 l2 -38 7
40 c5 30 8 33 9 13 0 -14 4 -34 7 -43 4 -9 3 -15 -2 -14 -5 1 -28 1 -51 0 -38
-1 -43 -4 -43 -25 0 -25 -8 -30 -112 -60 -36 -11 -58 -22 -58 -32 0 -27 101
-8 131 25 19 20 45 30 36 14 -3 -5 -1 -18 4 -31 7 -18 16 -22 51 -22 59 0 85
9 91 29 4 15 27 21 133 35 90 11 141 13 168 7 51 -13 67 -28 44 -45 -10 -7
-18 -24 -18 -38 0 -13 -4 -28 -10 -34 -5 -5 -13 -51 -16 -100 l-7 -91 -59 19
c-85 26 -185 33 -248 18 -44 -10 -55 -18 -64 -41 -6 -16 -16 -29 -22 -29 -7 0
-27 -12 -44 -27 -32 -27 -36 -48 -15 -95 6 -15 -4 -23 -56 -45 -88 -37 -250
-121 -271 -140 -10 -9 -18 -24 -18 -33 0 -11 -10 -20 -25 -24 -46 -12 -95
-112 -64 -132 6 -3 8 -16 5 -29 -7 -26 13 -35 74 -35 65 0 80 9 73 41 -4 22
-2 29 10 29 26 0 40 38 35 92 l-5 50 46 20 c83 36 274 97 371 118 127 27 280
51 289 46 4 -3 11 -115 15 -248 10 -346 16 -388 55 -388 21 0 35 -46 17 -54
-25 -10 22 -26 79 -26 60 0 88 9 84 26 -2 5 3 27 10 50 12 37 11 46 -7 87 -17
39 -27 48 -61 58 l-41 12 0 239 c0 203 2 239 15 244 19 8 347 -51 435 -78 36
-10 113 -37 171 -59 l106 -40 -5 -55 c-4 -46 -1 -59 17 -78 12 -13 23 -36 25
-52 4 -34 39 -47 104 -38 40 6 42 8 42 40 0 19 5 34 10 34 6 0 10 17 10 38 0
44 -18 65 -68 83 -24 8 -32 17 -32 35 0 34 -63 71 -294 173 -46 20 -48 22 -32
39 40 45 7 112 -56 112 -25 0 -28 3 -22 24 9 38 -30 57 -128 63 -77 4 -185
-14 -250 -42 -16 -6 -18 0 -18 54 l0 61 40 0 c21 0 51 5 65 12 25 11 26 15 20
57 -3 26 -8 53 -11 62 -4 14 15 20 108 38 142 27 326 56 488 76 188 24 187 24
218 50 41 34 56 96 49 203 -7 111 -29 174 -80 225 l-40 40 6 69 c4 50 11 74
23 83 16 11 16 13 -2 24 -16 11 -15 11 11 5 17 -5 50 -8 75 -8 40 -1 45 2 48
22 7 47 -66 94 -163 106 -67 9 -273 -8 -288 -23 -23 -23 6 -46 59 -46 27 0 54
-5 59 -12 6 -6 19 -13 30 -15 18 -3 20 -11 20 -98 l0 -95 -51 -6 c-28 -4 -89
-23 -135 -44 -76 -34 -218 -79 -225 -72 -2 2 -10 19 -19 39 -10 26 -12 39 -4
44 6 3 24 27 40 52 24 38 29 57 29 109 0 71 -16 118 -110 323 -82 179 -110
261 -117 345 -5 64 -2 79 33 170 42 111 54 206 34 256 -19 45 -84 95 -164 125
-54 21 -84 41 -127 83 -53 54 -57 61 -88 171 -67 237 -81 272 -125 316 -50 51
-91 64 -221 70 -76 3 -111 1 -145 -12z m213 -162 c24 -41 17 -68 -13 -52 -15
8 -25 8 -33 1 -7 -5 -19 -6 -26 -2 -11 7 -9 17 10 50 26 47 36 47 62 3z m-89
-98 c10 -10 24 -13 37 -9 17 6 19 9 8 17 -10 7 -5 7 16 3 37 -9 44 -9 78 0 23
6 27 4 27 -13 0 -21 -29 -26 -42 -7 -5 7 -8 6 -8 0 0 -6 -9 -11 -20 -11 -11 0
-20 4 -20 8 0 5 -9 4 -19 -2 -27 -14 -61 -13 -61 3 0 7 -3 8 -8 2 -9 -13 -42
-19 -42 -7 0 10 21 32 31 32 4 0 15 -7 23 -16z m89 -51 c-18 -2 -48 -2 -65 0
-18 2 -4 4 32 4 36 0 50 -2 33 -4z m-165 -280 c-5 -69 -12 -109 -20 -115 -21
-13 -105 -10 -111 5 -2 7 11 56 30 109 29 81 39 98 61 106 46 15 48 9 40 -105z
m278 84 c13 -15 84 -172 84 -187 0 -13 -107 -13 -115 0 -7 11 -35 166 -35 194
0 15 5 17 28 11 15 -3 32 -12 38 -18z m-86 -1998 c11 -6 6 -9 -17 -10 -18 -1
-39 -2 -45 -3 -7 -1 -14 7 -16 16 -3 15 2 17 30 12 18 -4 40 -10 48 -15z m390
-89 c0 -5 -4 -10 -10 -10 -5 0 -10 5 -10 10 0 6 5 10 10 10 6 0 10 -4 10 -10z
m-370 -316 c44 -15 80 -29 80 -33 0 -5 -141 -41 -160 -41 -3 0 -5 23 -5 50 0
28 1 50 3 50 1 0 39 -12 82 -26z m715 -29 c0 -50 -2 -54 -20 -48 -11 4 -54 14
-95 23 -72 16 -74 17 -50 30 24 13 133 48 155 49 6 1 10 -24 10 -54z m-931
-61 c9 -24 2 -26 -12 -4 -7 11 -8 20 -3 20 5 0 12 -7 15 -16z m733 -20 c-3 -3
-12 -4 -19 -1 -8 3 -5 6 6 6 11 1 17 -2 13 -5z m-1167 -354 c0 -5 -4 -10 -10
-10 -5 0 -10 5 -10 10 0 6 5 10 10 10 6 0 10 -4 10 -10z m1120 -314 c0 -11
-19 -15 -25 -6 -3 5 1 10 9 10 9 0 16 -2 16 -4z m-130 -26 c0 -5 -2 -10 -4
-10 -3 0 -8 5 -11 10 -3 6 -1 10 4 10 6 0 11 -4 11 -10z"/>
<path d="M1731 3692 c-15 -28 -14 -29 14 -29 22 0 23 2 13 21 -15 30 -15 30
-27 8z"/>
</g>
</svg>
