<?xml version="1.0" standalone="no"?>
<!DOCTYPE svg PUBLIC "-//W3C//DTD SVG 20010904//EN"
 "http://www.w3.org/TR/2001/REC-SVG-20010904/DTD/svg10.dtd">
<svg version="1.0" xmlns="http://www.w3.org/2000/svg"
 width="395.000000pt" height="395.000000pt" viewBox="0 0 395.000000 395.000000"
 preserveAspectRatio="xMidYMid meet">

<g transform="translate(0.000000,395.000000) scale(0.100000,-0.100000)"
fill="#000000" stroke="none">
<path d="M1345 3847 c-123 -32 -156 -91 -195 -349 -12 -78 -36 -188 -53 -243
-40 -130 -40 -186 1 -495 45 -346 56 -507 37 -561 -20 -56 -19 -72 19 -243 30
-132 32 -152 20 -175 -9 -17 -14 -62 -14 -132 0 -115 2 -119 65 -149 17 -8 37
-22 45 -31 18 -20 73 -39 112 -39 16 0 117 -18 225 -40 161 -33 204 -46 241
-70 25 -17 49 -30 54 -30 4 0 8 -9 8 -20 0 -11 -4 -20 -10 -20 -5 0 -10 -10
-10 -22 0 -13 -7 -32 -15 -42 -11 -14 -15 -45 -15 -104 0 -71 -2 -83 -15 -78
-63 24 -152 40 -225 40 -96 0 -143 -16 -148 -52 -2 -13 -10 -22 -22 -22 -17 0
-80 -62 -80 -78 1 -4 7 -18 15 -32 18 -31 18 -40 3 -40 -7 0 -86 -36 -176 -81
-144 -72 -164 -84 -169 -109 -3 -18 -13 -30 -28 -34 -25 -6 -72 -62 -76 -92
-2 -10 2 -28 8 -39 6 -12 11 -30 10 -40 -2 -17 5 -20 52 -23 80 -5 103 3 95
32 -4 17 1 27 21 40 24 16 26 22 24 79 l-3 62 83 33 c152 62 418 129 577 147
l62 7 6 -239 c10 -330 22 -413 61 -413 18 0 27 -30 14 -46 -9 -11 -5 -16 16
-24 54 -21 166 -6 150 20 -3 5 2 24 11 41 14 27 14 39 4 72 -15 52 -51 87 -90
87 l-30 0 0 68 c0 181 14 431 24 435 6 3 43 -1 81 -9 39 -7 111 -20 160 -29
120 -21 290 -69 396 -111 l86 -35 -5 -52 c-3 -45 0 -59 22 -92 15 -21 24 -46
21 -55 -6 -20 19 -30 75 -30 62 0 77 8 72 39 -2 17 2 32 12 40 37 31 -5 113
-64 126 -23 5 -30 12 -30 30 0 33 -28 52 -194 130 -139 65 -165 85 -131 99 42
16 -8 106 -59 106 -19 0 -25 6 -28 27 -5 42 -46 58 -153 57 -80 0 -114 -6
-232 -40 -23 -6 -23 -5 -23 84 0 50 -4 94 -10 97 -5 3 -10 19 -10 36 0 16 -4
29 -10 29 -5 0 -10 9 -10 20 0 40 28 20 34 -25 4 -24 12 -47 17 -51 19 -11 78
-8 103 6 21 11 26 21 26 52 0 45 0 45 118 22 93 -19 94 -25 9 -68 -79 -40 -94
-53 -81 -74 6 -9 26 -18 46 -20 30 -3 38 2 61 36 15 21 27 43 27 48 0 6 9 19
20 29 28 25 25 44 -7 51 -81 18 -80 19 43 54 138 38 154 45 154 65 0 19 12 19
106 -2 57 -12 80 -22 91 -40 13 -19 24 -23 64 -23 59 0 73 19 63 86 -5 38 -9
44 -25 39 -16 -5 -19 -1 -19 29 0 26 4 36 16 36 23 0 92 57 109 91 18 34 18
121 1 169 -7 19 -26 44 -44 55 -38 25 -44 68 -10 86 l21 11 -23 18 c-23 17
-21 40 4 40 7 0 23 9 36 20 15 13 37 20 65 20 41 0 65 13 65 37 0 23 -38 33
-143 39 -89 6 -114 4 -174 -14 -120 -37 -198 -116 -153 -157 21 -19 58 -19
103 0 20 8 39 15 42 15 3 0 5 -22 5 -50 0 -48 -1 -50 -41 -70 l-40 -21 -128
20 c-70 12 -130 21 -133 21 -3 0 -11 27 -17 60 -7 36 -43 122 -90 217 -116
236 -131 278 -132 372 0 70 4 90 41 182 55 136 64 239 28 309 -21 42 -32 49
-156 111 -77 38 -149 81 -169 101 l-35 36 1 103 c1 125 -10 155 -56 152 l-30
-3 -27 102 c-43 159 -69 198 -161 239 -61 28 -203 35 -280 16z m-65 -724 c0
-35 -3 -44 -11 -36 -7 7 -9 25 -5 47 9 50 16 45 16 -11z m1537 -1623 c-3 -11
-1 -23 4 -26 14 -8 10 -24 -6 -24 -15 0 -20 26 -9 54 9 23 17 20 11 -4z m-43
-45 c-6 -25 -9 -26 -43 -20 -57 11 -58 17 -5 35 27 10 50 16 52 15 2 -2 0 -15
-4 -30z m-1090 -520 c20 -8 36 -17 36 -19 0 -3 -31 -11 -69 -20 -38 -9 -75
-18 -82 -21 -11 -4 -14 7 -14 49 l0 53 46 -13 c26 -8 63 -21 83 -29z m681 -11
c0 -50 -2 -55 -20 -50 -11 3 -53 13 -94 22 l-74 17 36 19 c20 10 63 25 94 32
32 8 58 15 58 15 0 1 0 -24 0 -55z m-937 -72 c2 -7 -1 -12 -8 -12 -6 0 -9 4
-6 9 4 5 1 12 -4 14 -6 3 -5 4 2 3 6 -1 14 -8 16 -14z m709 -8 c-3 -3 -12 -4
-19 -1 -8 3 -5 6 6 6 11 1 17 -2 13 -5z m-1157 -364 c0 -5 -4 -10 -10 -10 -5
0 -10 5 -10 10 0 6 5 10 10 10 6 0 10 -4 10 -10z m1835 -20 c3 -5 1 -10 -4
-10 -6 0 -11 5 -11 10 0 6 2 10 4 10 3 0 8 -4 11 -10z m-705 -300 c0 -5 -5
-10 -11 -10 -5 0 -7 5 -4 10 3 6 8 10 11 10 2 0 4 -4 4 -10z m-120 -30 c0 -5
-4 -10 -10 -10 -5 0 -10 5 -10 10 0 6 5 10 10 10 6 0 10 -4 10 -10z m95 0 c3
-5 1 -10 -4 -10 -6 0 -11 5 -11 10 0 6 2 10 4 10 3 0 8 -4 11 -10z"/>
</g>
</svg>
