<?xml version="1.0" standalone="no"?>
<!DOCTYPE svg PUBLIC "-//W3C//DTD SVG 20010904//EN"
 "http://www.w3.org/TR/2001/REC-SVG-20010904/DTD/svg10.dtd">
<svg version="1.0" xmlns="http://www.w3.org/2000/svg"
 width="395.000000pt" height="395.000000pt" viewBox="0 0 395.000000 395.000000"
 preserveAspectRatio="xMidYMid meet">

<g transform="translate(0.000000,395.000000) scale(0.100000,-0.100000)"
fill="#000000" stroke="none">
<path d="M1647 3273 c12 -2 29 -15 37 -29 16 -23 16 -24 -8 -24 -13 0 -26 -5
-28 -10 -2 -6 -17 -12 -33 -13 -24 -2 -31 2 -33 21 -2 12 -10 22 -19 22 -25 0
-8 11 29 20 70 17 -18 10 -134 -9 -212 -37 -274 -66 -266 -124 2 -18 -10 -29
-74 -63 -230 -124 -370 -285 -409 -469 -30 -141 -11 -459 41 -681 l21 -87 -32
-27 c-30 -25 -32 -28 -27 -85 4 -48 10 -62 31 -80 15 -11 27 -30 27 -41 0 -11
7 -29 15 -40 8 -10 15 -29 15 -41 0 -13 5 -23 12 -23 6 0 3 -6 -7 -14 -16 -12
-17 -16 -6 -30 7 -9 22 -16 32 -16 11 0 19 -6 19 -14 0 -8 5 -18 10 -21 18
-11 50 6 50 26 0 10 4 19 10 19 5 0 17 11 25 24 13 19 14 29 5 45 -14 28 1 27
27 -2 13 -13 23 -43 27 -77 16 -128 57 -270 78 -270 5 0 8 -7 8 -15 0 -8 5
-15 10 -15 6 0 10 -6 10 -14 0 -8 7 -16 15 -20 8 -3 15 -12 15 -21 0 -8 6 -15
13 -15 6 0 -3 -12 -22 -27 -39 -31 -64 -82 -56 -118 3 -14 7 -36 10 -50 3 -13
16 -36 30 -51 14 -15 25 -38 25 -50 0 -15 6 -24 15 -24 17 0 20 -16 5 -25 -14
-9 -12 -67 3 -85 15 -18 73 -50 91 -50 6 0 28 17 48 38 29 29 37 46 40 81 3
42 5 44 53 62 74 28 75 27 75 -43 0 -54 2 -60 13 -43 10 12 22 16 40 13 21 -4
27 0 31 18 8 31 59 117 72 121 5 2 19 -14 29 -34 l19 -38 6 45 5 45 28 -47
c15 -27 29 -48 31 -48 2 0 2 16 0 35 -3 42 3 44 33 8 l23 -28 6 23 c7 24 20
29 26 10 2 -6 13 -12 25 -13 16 -1 19 3 16 19 -4 16 -2 18 5 7 5 -7 15 -10 22
-6 6 4 17 -1 25 -11 14 -18 14 -18 15 3 0 34 16 36 39 6 l20 -28 1 33 c0 17 4
32 8 32 4 0 17 -15 27 -32 l20 -33 5 40 5 40 22 -30 21 -30 7 28 c9 34 18 34
36 0 l13 -28 4 33 c4 39 14 41 33 6 l13 -26 9 33 9 34 18 -22 c19 -24 30 -21
30 9 0 24 8 23 31 -5 l18 -22 1 35 1 35 19 -24 c11 -13 21 -18 21 -12 3 26 4
30 12 37 4 4 14 -1 22 -12 14 -19 14 -19 15 2 0 30 11 36 32 17 17 -15 18 -14
18 18 1 30 2 32 14 16 17 -22 26 -22 26 3 0 23 10 26 28 8 9 -9 12 -7 12 8 0
28 10 36 27 23 10 -9 13 -6 13 15 0 14 5 26 10 26 6 0 10 -4 10 -10 0 -5 5
-10 10 -10 6 0 10 11 10 25 0 25 19 36 21 13 0 -7 5 -1 11 15 5 15 14 24 20
21 5 -3 12 4 15 15 4 16 11 20 24 16 11 -4 19 -2 19 4 0 5 6 16 13 23 7 7 27
89 44 182 l32 170 73 67 c41 37 74 61 76 54 2 -7 -15 -106 -38 -220 -22 -115
-38 -210 -35 -213 3 -3 5 0 5 6 0 7 13 12 30 12 45 0 94 48 95 94 1 20 -2 36
-7 36 -4 0 -8 5 -8 11 0 6 6 9 13 6 6 -2 20 0 30 5 11 5 17 5 17 -2 0 -5 -6
-10 -14 -10 -8 0 -16 -7 -20 -15 -7 -18 3 -19 26 -1 10 7 20 32 24 56 4 25 18
56 35 75 56 63 46 149 -21 189 -39 22 -50 20 -50 -10 0 -16 -5 -24 -12 -21 -7
2 -11 11 -10 18 2 8 5 26 6 41 1 15 6 31 11 35 4 4 5 2 1 -4 -4 -7 -2 -13 5
-13 6 0 9 8 7 18 -4 13 5 26 27 41 39 26 54 84 30 111 -13 14 -12 29 10 126
61 267 66 614 12 721 -96 187 -384 364 -769 472 -95 27 -320 49 -484 49 -114
-1 -125 1 -169 26 -26 14 -59 25 -74 25 -22 -2 -23 -2 -4 -6z m-88 -57 c9 -11
9 -16 -1 -23 -24 -15 -113 -32 -124 -23 -12 11 -56 1 -49 -10 3 -5 -16 -11
-42 -15 -27 -3 -56 -10 -65 -16 -29 -15 -38 -11 -38 20 0 36 22 46 60 26 37
-19 39 -19 33 6 -5 18 -2 20 24 18 17 -2 38 2 46 10 9 7 21 10 26 7 5 -4 12
-2 16 4 10 15 101 12 114 -4z m1151 -810 c0 -3 -4 -8 -10 -11 -5 -3 -10 -1
-10 4 0 6 5 11 10 11 6 0 10 -2 10 -4z m396 -583 c-10 -10 -19 5 -10 18 6 11
8 11 12 0 2 -7 1 -15 -2 -18z m-58 -245 c-3 -13 -15 -75 -27 -138 -21 -106
-30 -148 -46 -207 -4 -13 -13 -23 -21 -23 -13 0 -13 2 1 16 12 12 13 19 4 30
-9 11 -9 14 1 14 6 0 10 6 7 13 -2 6 0 23 5 36 4 13 15 58 22 100 33 177 34
181 47 181 6 0 9 -10 7 -22z m-2163 -88 c-3 -5 -12 -10 -18 -10 -7 0 -6 4 3
10 19 12 23 12 15 0z m1482 -267 c-3 -10 -5 -4 -5 12 0 17 2 24 5 18 2 -7 2
-21 0 -30z m-110 -25 c-3 -7 -5 -2 -5 12 0 14 2 19 5 13 2 -7 2 -19 0 -25z
m160 10 c-3 -8 -6 -5 -6 6 -1 11 2 17 5 13 3 -3 4 -12 1 -19z m-900 -30 c-3
-8 -6 -5 -6 6 -1 11 2 17 5 13 3 -3 4 -12 1 -19z m790 -40 c-3 -7 -5 -2 -5 12
0 14 2 19 5 13 2 -7 2 -19 0 -25z m-790 -15 c-3 -10 -5 -4 -5 12 0 17 2 24 5
18 2 -7 2 -21 0 -30z m560 5 c-3 -8 -6 -5 -6 6 -1 11 2 17 5 13 3 -3 4 -12 1
-19z m-630 -65 c-3 -10 -5 -4 -5 12 0 17 2 24 5 18 2 -7 2 -21 0 -30z m80
-105 c-2 -29 -3 -8 -3 47 0 55 1 79 3 53 2 -26 2 -71 0 -100z m720 110 c-3 -7
-5 -2 -5 12 0 14 2 19 5 13 2 -7 2 -19 0 -25z m-300 -60 c-2 -13 -4 -3 -4 22
0 25 2 35 4 23 2 -13 2 -33 0 -45z m350 25 c-3 -10 -5 -4 -5 12 0 17 2 24 5
18 2 -7 2 -21 0 -30z m190 5 c-3 -8 -6 -5 -6 6 -1 11 2 17 5 13 3 -3 4 -12 1
-19z m-360 -75 c-3 -10 -5 -2 -5 17 0 19 2 27 5 18 2 -10 2 -26 0 -35z m-120
-35 c-2 -13 -4 -3 -4 22 0 25 2 35 4 23 2 -13 2 -33 0 -45z m-550 -15 c-3 -10
-5 -4 -5 12 0 17 2 24 5 18 2 -7 2 -21 0 -30z m610 5 c-3 -7 -5 -2 -5 12 0 14
2 19 5 13 2 -7 2 -19 0 -25z m220 0 c-3 -8 -6 -5 -6 6 -1 11 2 17 5 13 3 -3 4
-12 1 -19z m-897 -19 c0 -16 4 -19 20 -14 29 9 26 -23 -2 -34 -67 -25 -68 -25
-56 11 6 18 12 39 14 46 5 20 24 14 24 -9z m147 -21 c-3 -8 -6 -5 -6 6 -1 11
2 17 5 13 3 -3 4 -12 1 -19z m0 -110 c-2 -18 -4 -6 -4 27 0 33 2 48 4 33 2
-15 2 -42 0 -60z m-344 -74 c-2 -6 0 -15 6 -19 6 -3 11 0 11 8 0 9 13 17 33
20 32 5 53 -2 30 -10 -7 -2 -9 -11 -6 -19 5 -12 -3 -15 -42 -12 -41 3 -49 6
-50 24 -1 11 4 21 11 21 7 0 10 -6 7 -13z m127 -19 c0 -2 -9 -3 -19 -2 -11 0
-18 5 -15 9 4 6 34 0 34 -7z"/>
<path d="M1492 3208 c5 -15 28 -18 29 -3 0 6 -7 12 -17 13 -10 3 -15 -1 -12
-10z"/>
<path d="M1615 3230 c4 -6 11 -8 16 -5 14 9 11 15 -7 15 -8 0 -12 -5 -9 -10z"/>
</g>
</svg>
