<?xml version="1.0" standalone="no"?>
<!DOCTYPE svg PUBLIC "-//W3C//DTD SVG 20010904//EN"
 "http://www.w3.org/TR/2001/REC-SVG-20010904/DTD/svg10.dtd">
<svg version="1.0" xmlns="http://www.w3.org/2000/svg"
 width="395.000000pt" height="395.000000pt" viewBox="0 0 395.000000 395.000000"
 preserveAspectRatio="xMidYMid meet">

<g transform="translate(0.000000,395.000000) scale(0.100000,-0.100000)"
fill="#000000" stroke="none">
<path d="M2061 3687 c-16 -20 -31 -255 -31 -495 0 -205 -1 -214 -20 -219 -28
-7 -31 -40 -28 -258 l3 -190 90 -5 c69 -4 83 -7 60 -13 -16 -5 -57 -15 -90
-24 -69 -17 -185 -75 -212 -105 -10 -11 6 -4 37 16 30 20 60 34 67 32 13 -5
125 -27 163 -32 13 -1 26 -8 28 -13 2 -7 33 -11 75 -11 38 0 68 -2 66 -4 -3
-3 -45 -10 -94 -16 -60 -7 -111 -21 -153 -40 -118 -55 -224 -184 -272 -330
-16 -49 -26 -66 -41 -68 -10 -1 -25 -2 -33 -3 -9 -2 -16 -21 -20 -53 -3 -28
-10 -52 -16 -54 -16 -6 -23 -68 -15 -147 l7 -74 41 -3 42 -3 7 -117 c5 -78 14
-133 28 -167 24 -62 24 -61 5 -61 -8 0 -15 -7 -15 -15 0 -9 -6 -12 -15 -9 -8
4 -15 1 -15 -6 0 -6 -4 -8 -10 -5 -5 3 -10 1 -10 -4 0 -6 -8 -11 -17 -12 -26
-1 -168 -101 -168 -118 0 -13 -455 -270 -477 -271 -4 0 -15 14 -23 30 -32 63
-128 90 -194 55 -42 -21 -108 -101 -115 -138 -13 -72 36 -149 108 -168 31 -8
48 -7 82 6 51 19 120 92 129 136 5 23 18 35 58 55 29 15 144 76 256 137 158
86 205 107 212 96 6 -11 26 -5 99 31 49 24 90 48 90 53 0 4 4 6 8 3 5 -3 19 4
30 15 12 11 22 17 22 14 0 -3 13 1 28 10 28 17 30 16 85 -19 87 -56 144 -77
230 -86 43 -4 81 -11 85 -15 4 -3 8 -82 9 -174 3 -183 -11 -266 -64 -400 -52
-131 -178 -278 -325 -378 l-70 -48 62 -3 c55 -3 66 0 98 25 168 127 294 311
342 497 20 79 36 212 46 386 3 52 7 96 8 97 1 1 46 9 100 17 113 17 210 59
293 125 85 68 132 190 133 343 l0 77 33 3 c32 3 32 3 40 72 9 72 2 156 -13
156 -4 0 -11 51 -15 113 -11 172 -43 276 -116 383 l-28 41 45 44 c81 80 105
169 65 248 -42 82 -120 121 -241 121 l-50 0 0 98 c0 99 -4 116 -29 124 -13 4
-14 57 -12 358 2 285 0 354 -11 361 -7 5 -110 9 -229 9 -167 0 -219 -3 -228
-13z m675 -1012 c50 -21 74 -43 74 -69 0 -26 -52 -137 -71 -152 -31 -25 -76
-24 -122 1 -24 14 -77 34 -118 44 l-74 19 66 1 c78 1 79 2 79 115 l0 69 64 -6
c36 -3 82 -13 102 -22z m99 -157 c-10 -33 -53 -98 -66 -98 -5 0 1 15 15 33 13
17 29 44 35 60 13 32 25 36 16 5z m-75 -113 c0 -11 -41 -25 -53 -18 -8 5 -4 9
13 14 33 9 40 10 40 4z m-130 -160 c13 -14 21 -25 18 -25 -2 0 -15 11 -28 25
-13 14 -21 25 -18 25 2 0 15 -11 28 -25z m61 -62 c13 -16 12 -17 -3 -4 -17 13
-22 21 -14 21 2 0 10 -8 17 -17z m-821 -82 c-22 -43 -49 -114 -59 -157 -10
-44 -24 -97 -29 -119 l-10 -40 -1 42 c-1 53 22 175 45 233 23 58 73 132 84
125 6 -3 -8 -41 -30 -84z m869 -76 c36 -108 53 -245 31 -245 -5 0 -10 9 -10
21 0 46 -42 223 -65 276 -31 69 -31 76 0 38 14 -16 34 -57 44 -90z m-648 -235
c32 -23 132 -66 230 -99 75 -24 113 -59 124 -111 l8 -35 -26 31 c-20 23 -51
40 -119 64 -134 46 -193 76 -227 116 -47 53 -42 70 10 34z m-371 -141 c0 -16
-5 -20 -27 -17 -30 3 -44 35 -22 49 19 11 49 -8 49 -32z m550 -44 c116 -40
144 -55 160 -85 11 -21 5 -60 -9 -60 -4 0 -13 10 -18 23 -8 18 -36 32 -122 61
-88 30 -117 45 -141 72 -40 46 -41 73 -2 46 15 -11 75 -37 132 -57z m496 -160
l-15 -70 5 75 c3 41 8 91 12 110 l6 35 3 -40 c2 -22 -3 -71 -11 -110z m-977
33 c6 -57 14 -116 16 -133 5 -27 4 -28 -5 -7 -18 42 -44 242 -31 242 4 0 13
-46 20 -102z m406 53 c3 -5 42 -22 88 -37 45 -14 88 -31 95 -37 19 -15 14 -41
-14 -68 -17 -16 -23 -18 -19 -7 11 28 -12 55 -60 68 -50 14 -89 40 -105 71
-11 19 3 28 15 10z"/>
</g>
</svg>
