<?xml version="1.0" standalone="no"?>
<!DOCTYPE svg PUBLIC "-//W3C//DTD SVG 20010904//EN"
 "http://www.w3.org/TR/2001/REC-SVG-20010904/DTD/svg10.dtd">
<svg version="1.0" xmlns="http://www.w3.org/2000/svg"
 width="395.000000pt" height="395.000000pt" viewBox="0 0 395.000000 395.000000"
 preserveAspectRatio="xMidYMid meet">

<g transform="translate(0.000000,395.000000) scale(0.100000,-0.100000)"
fill="#000000" stroke="none">
<path d="M1298 3862 c-56 -29 -58 -39 -48 -327 7 -214 13 -274 30 -339 12 -46
23 -121 25 -180 2 -60 14 -144 29 -206 13 -58 54 -231 90 -385 106 -455 136
-574 173 -688 31 -97 33 -111 22 -142 -10 -28 -10 -53 0 -127 15 -117 27 -147
59 -155 14 -3 90 -3 169 1 135 6 145 5 165 -14 34 -32 15 -71 -42 -89 -164
-51 -175 -56 -178 -80 -3 -21 -1 -23 22 -17 26 6 98 39 166 75 37 20 50 20 32
-1 -6 -7 -12 -44 -13 -82 -1 -38 -4 -79 -7 -91 l-4 -21 -56 19 c-70 24 -221
34 -279 18 -32 -9 -43 -18 -52 -41 -5 -17 -16 -30 -23 -30 -17 -1 -52 -30 -66
-56 -7 -14 -6 -28 4 -52 l14 -33 -48 -20 c-67 -28 -241 -114 -279 -138 -22
-14 -33 -28 -33 -45 0 -18 -7 -25 -29 -29 -22 -5 -37 -19 -56 -52 -26 -43 -26
-47 -12 -77 9 -18 13 -36 10 -41 -9 -15 20 -27 67 -27 72 0 87 7 82 38 -3 21
2 29 20 37 20 9 23 17 24 74 1 64 1 64 39 84 124 63 631 189 682 170 10 -4 13
-60 13 -234 0 -302 17 -419 61 -419 19 0 21 -4 16 -34 -7 -41 2 -46 83 -46 69
0 91 7 84 25 -3 8 2 29 11 48 16 34 15 37 -6 86 -23 55 -42 71 -83 71 l-26 0
0 238 c0 176 3 243 13 255 11 17 21 16 162 -9 230 -40 414 -91 536 -149 35
-17 36 -18 31 -66 -4 -42 0 -55 23 -88 18 -26 25 -46 20 -60 -5 -17 0 -21 39
-26 25 -4 61 -4 79 -1 30 6 34 10 34 38 0 18 5 34 11 36 19 6 14 67 -8 95 -12
15 -36 29 -55 33 -29 5 -34 11 -37 37 -3 25 -12 35 -63 64 -33 18 -108 54
-167 80 -60 26 -108 51 -108 56 0 4 7 15 15 23 23 24 18 53 -15 86 -21 20 -37
28 -50 25 -16 -4 -20 0 -20 18 0 34 -24 53 -77 61 -70 10 -211 -2 -275 -25
l-58 -20 0 95 c0 56 -4 94 -10 94 -5 0 -10 14 -10 30 0 18 -6 33 -15 36 -24 9
-18 28 15 47 47 28 69 29 74 4 17 -81 28 -124 36 -136 17 -29 140 -1 140 32 0
6 -7 34 -15 61 -22 72 -20 86 11 86 21 0 25 -4 19 -17 -4 -10 -9 -34 -12 -53
-4 -31 -2 -37 21 -48 42 -19 120 -15 147 7 22 17 22 21 10 61 -9 30 -9 45 -2
49 6 4 80 8 163 9 188 3 318 18 338 38 12 12 15 38 13 121 -2 88 -7 113 -27
157 -30 61 -40 74 -86 106 -19 13 -69 56 -111 96 -87 82 -156 114 -251 117
l-58 2 0 61 0 61 41 6 c23 3 45 10 49 16 4 7 48 10 126 9 117 -3 119 -3 122
20 4 29 -28 43 -178 73 -203 40 -534 26 -616 -26 -27 -17 -33 -102 -9 -112 8
-3 51 1 94 9 45 9 85 11 93 7 7 -5 29 -9 49 -9 33 0 37 -3 43 -31 3 -17 6 -50
6 -73 l0 -41 -113 -58 c-89 -45 -213 -97 -233 -97 -2 0 -1 12 2 28 3 15 -2 47
-10 70 -12 34 -14 53 -6 89 15 65 -8 134 -77 236 -31 45 -94 138 -141 206
-147 216 -167 280 -137 446 20 111 15 191 -16 243 -19 33 -19 36 -3 78 18 48
15 155 -4 162 -7 2 -12 14 -12 27 0 23 -54 99 -103 144 l-26 23 -29 -21 -30
-21 -6 32 c-4 18 -9 86 -13 151 -7 130 -18 156 -72 175 -23 8 -37 7 -63 -6z
m269 -1699 c-3 -10 -5 -4 -5 12 0 17 2 24 5 18 2 -7 2 -21 0 -30z m933 -568
c0 -14 4 -25 9 -25 4 0 6 11 3 25 -3 17 0 25 10 25 12 0 16 -26 21 -137 4 -75
6 -137 5 -138 -2 -1 -15 -5 -30 -9 -24 -5 -28 -3 -28 14 0 12 -5 18 -10 15 -6
-4 -8 -11 -5 -16 4 -5 0 -9 -7 -9 -10 0 -14 32 -15 140 l-2 140 24 0 c20 0 25
-5 25 -25z m-702 -657 c28 -11 52 -23 52 -26 0 -6 -140 -42 -160 -42 -3 0 -5
23 -5 50 l0 51 30 -7 c16 -4 54 -15 83 -26z m707 -21 l0 -52 -92 20 c-51 11
-93 23 -93 26 0 7 148 58 170 59 11 0 15 -12 15 -53z m-949 -84 c-4 -4 -11 -1
-16 7 -16 25 -11 35 7 17 9 -9 13 -20 9 -24z m-451 -363 c3 -5 1 -10 -4 -10
-6 0 -11 5 -11 10 0 6 2 10 4 10 3 0 8 -4 11 -10z m1855 -20 c0 -5 -2 -10 -4
-10 -3 0 -8 5 -11 10 -3 6 -1 10 4 10 6 0 11 -4 11 -10z m-715 -309 c-3 -6
-11 -8 -17 -5 -6 4 -5 9 3 15 16 10 23 4 14 -10z m-125 -21 c0 -5 -2 -10 -4
-10 -3 0 -8 5 -11 10 -3 6 -1 10 4 10 6 0 11 -4 11 -10z m105 -8 c-3 -3 -11 0
-18 7 -9 10 -8 11 6 5 10 -3 15 -9 12 -12z"/>
<path d="M2469 1484 c-3 -67 0 -101 7 -101 7 0 9 30 7 86 -6 125 -9 129 -14
15z"/>
<path d="M2504 1546 c-3 -7 -4 -38 -2 -67 l3 -54 5 68 c5 67 4 79 -6 53z"/>
<path d="M2506 1383 c10 -40 14 -41 14 -5 0 18 -5 32 -10 32 -6 0 -8 -11 -4
-27z"/>
</g>
</svg>
