<?xml version="1.0" standalone="no"?>
<!DOCTYPE svg PUBLIC "-//W3C//DTD SVG 20010904//EN"
 "http://www.w3.org/TR/2001/REC-SVG-20010904/DTD/svg10.dtd">
<svg version="1.0" xmlns="http://www.w3.org/2000/svg"
 width="395.000000pt" height="395.000000pt" viewBox="0 0 395.000000 395.000000"
 preserveAspectRatio="xMidYMid meet">

<g transform="translate(0.000000,395.000000) scale(0.100000,-0.100000)"
fill="#000000" stroke="none">
<path d="M1162 2881 c-9 -5 -11 -18 -6 -37 12 -56 137 -542 224 -874 48 -184
120 -462 161 -617 40 -156 78 -283 83 -283 11 0 192 52 516 150 107 32 292 86
410 120 242 70 250 74 250 99 0 17 -5 17 -82 -5 -257 -69 -685 -189 -757 -211
-113 -34 -179 -30 -222 15 -17 18 -37 32 -44 32 -8 0 -27 11 -43 25 -24 20
-33 40 -47 103 -28 129 -83 339 -131 502 -25 85 -61 216 -80 290 -20 74 -39
149 -44 165 -52 192 -80 308 -80 331 0 28 29 112 56 165 l13 25 -80 0 c-43 -1
-80 2 -81 6 -2 4 -9 4 -16 -1z m478 -1751 c6 9 13 9 31 -1 l24 -12 -30 -13
c-36 -14 -45 -10 -44 19 0 13 3 16 6 8 4 -10 7 -10 13 -1z"/>
<path d="M1928 2853 c6 -2 18 -2 25 0 6 3 1 5 -13 5 -14 0 -19 -2 -12 -5z"/>
<path d="M2108 2843 c18 -2 45 -2 60 0 15 2 0 4 -33 4 -33 0 -45 -2 -27 -4z"/>
<path d="M2270 2831 c41 -5 52 -8 30 -9 -19 -1 -42 -7 -50 -12 -13 -8 -12 -11
4 -23 11 -8 16 -19 13 -24 -8 -12 29 -63 45 -63 5 0 27 -13 48 -30 21 -16 43
-30 49 -30 6 0 13 -11 17 -25 4 -18 13 -25 30 -25 21 0 24 -5 25 -42 0 -24 3
-37 6 -29 5 11 7 11 15 0 7 -10 8 -7 3 11 -3 14 -8 41 -11 60 -3 26 0 22 10
-15 8 -27 15 -54 16 -60 0 -5 5 -3 10 5 7 11 8 6 4 -17 -5 -26 -3 -33 10 -33
9 0 18 -11 22 -27 3 -16 10 -41 15 -57 7 -21 6 -32 -3 -39 -9 -6 -8 -7 4 -4
13 5 19 -5 29 -46 13 -55 38 -120 39 -100 0 6 -16 60 -35 120 -18 59 -57 182
-85 272 -44 139 -57 170 -89 203 l-36 40 -100 3 c-82 2 -89 1 -35 -4z m174
-58 c10 -25 3 -23 -17 3 -13 18 -14 22 -3 18 8 -3 17 -13 20 -21z"/>
<path d="M1211 2464 c0 -11 3 -14 6 -6 3 7 2 16 -1 19 -3 4 -6 -2 -5 -13z"/>
<path d="M1241 2344 c0 -11 3 -14 6 -6 3 7 2 16 -1 19 -3 4 -6 -2 -5 -13z"/>
<path d="M1890 2350 c0 -5 12 -13 28 -16 28 -7 42 -20 42 -41 0 -21 -31 -15
-37 7 -7 28 -23 14 -23 -21 0 -24 4 -29 24 -29 13 0 27 7 30 16 5 13 9 14 21
4 19 -16 20 -3 3 51 -10 37 -14 39 -50 39 -21 0 -38 -4 -38 -10z"/>
<path d="M1796 2323 c16 -65 23 -74 52 -71 22 2 28 8 30 35 4 35 -25 63 -65
63 -20 0 -23 -4 -17 -27z m62 -31 c2 -15 -2 -22 -12 -22 -9 0 -16 4 -16 9 0 5
-3 17 -6 26 -5 13 -2 16 12 13 11 -2 20 -13 22 -26z"/>
<path d="M1616 2324 c-10 -25 -7 -94 4 -94 6 0 10 5 10 11 0 8 12 10 35 6 19
-3 35 -2 35 2 0 11 -61 91 -70 91 -4 0 -11 -7 -14 -16z m31 -46 c-3 -8 -6 -5
-6 6 -1 11 2 17 5 13 3 -3 4 -12 1 -19z"/>
<path d="M1690 2333 c0 -5 5 -25 10 -45 13 -44 36 -65 28 -24 -3 14 -1 26 3
26 5 0 9 -5 9 -11 0 -8 4 -8 14 0 11 10 16 8 21 -8 3 -12 11 -21 16 -21 12 0
11 5 -3 51 -12 41 -31 51 -42 23 -6 -16 -8 -16 -24 0 -20 17 -32 21 -32 9z"/>
<path d="M1251 2304 c0 -11 3 -14 6 -6 3 7 2 16 -1 19 -3 4 -6 -2 -5 -13z"/>
<path d="M2530 2248 c0 -7 7 -31 14 -53 8 -22 13 -41 11 -43 -1 -2 -26 20 -53
47 -49 49 -62 57 -74 46 -10 -10 47 -178 61 -183 14 -5 14 6 -5 84 -6 27 -3
26 48 -23 55 -54 83 -67 75 -35 -23 89 -54 172 -64 172 -7 0 -13 -6 -13 -12z"/>
<path d="M2258 2233 c-19 -5 -24 -28 -8 -38 5 -3 39 -3 75 1 54 6 65 10 65 25
0 17 -8 19 -57 18 -32 -1 -66 -3 -75 -6z"/>
<path d="M2115 2223 c-69 -5 -78 -9 -66 -30 7 -13 20 -16 55 -14 25 1 46 0 46
-4 0 -3 -14 -33 -30 -66 -42 -81 -35 -102 28 -94 92 12 103 16 100 33 -3 14
-14 16 -57 14 l-53 -4 37 66 c38 68 40 108 7 104 -9 -1 -39 -3 -67 -5z"/>
<path d="M1281 2194 c0 -11 3 -14 6 -6 3 7 2 16 -1 19 -3 4 -6 -2 -5 -13z"/>
<path d="M1960 2169 l-11 -42 -38 37 c-32 32 -71 48 -71 30 0 -4 21 -29 46
-56 40 -43 56 -69 77 -130 4 -10 12 -15 21 -12 11 4 12 13 4 42 -10 35 -6 66
19 155 3 12 -1 17 -16 17 -15 0 -23 -10 -31 -41z"/>
<path d="M2596 2187 c3 -10 9 -15 12 -12 3 3 0 11 -7 18 -10 9 -11 8 -5 -6z"/>
<path d="M1648 2183 c-20 -3 -25 -8 -21 -21 10 -26 18 -28 83 -22 51 5 63 3
71 -11 11 -22 -7 -29 -72 -29 -61 0 -66 -10 -45 -84 13 -44 21 -56 37 -56 15
0 19 5 15 18 -19 64 -18 69 11 76 24 7 32 2 63 -33 19 -23 43 -41 53 -41 23 0
21 9 -8 44 -18 23 -21 34 -14 48 12 23 2 84 -18 103 -14 15 -88 18 -155 8z"/>
<path d="M2312 2163 c-44 -3 -52 -7 -48 -21 3 -9 10 -37 17 -61 l13 -43 62 5
c71 5 85 11 77 33 -4 12 -18 15 -62 12 -46 -2 -56 0 -59 14 -3 14 6 17 45 20
40 3 48 6 48 23 0 22 -9 24 -93 18z"/>
<path d="M1301 2114 c0 -11 3 -14 6 -6 3 7 2 16 -1 19 -3 4 -6 -2 -5 -13z"/>
<path d="M1321 2044 c0 -11 3 -14 6 -6 3 7 2 16 -1 19 -3 4 -6 -2 -5 -13z"/>
<path d="M1331 1994 c0 -11 3 -14 6 -6 3 7 2 16 -1 19 -3 4 -6 -2 -5 -13z"/>
<path d="M1341 1965 c1 -19 18 -51 18 -35 0 8 -4 22 -9 30 -5 8 -9 11 -9 5z"/>
<path d="M1361 1884 c0 -11 3 -14 6 -6 3 7 2 16 -1 19 -3 4 -6 -2 -5 -13z"/>
<path d="M1401 1724 c0 -11 3 -14 6 -6 3 7 2 16 -1 19 -3 4 -6 -2 -5 -13z"/>
<path d="M1710 1290 c6 -11 13 -20 16 -20 2 0 0 9 -6 20 -6 11 -13 20 -16 20
-2 0 0 -9 6 -20z"/>
</g>
</svg>
