<?xml version="1.0" standalone="no"?>
<!DOCTYPE svg PUBLIC "-//W3C//DTD SVG 20010904//EN"
 "http://www.w3.org/TR/2001/REC-SVG-20010904/DTD/svg10.dtd">
<svg version="1.0" xmlns="http://www.w3.org/2000/svg"
 width="395.000000pt" height="395.000000pt" viewBox="0 0 395.000000 395.000000"
 preserveAspectRatio="xMidYMid meet">

<g transform="translate(0.000000,395.000000) scale(0.100000,-0.100000)"
fill="#000000" stroke="none">
<path d="M1612 3676 c-207 -51 -411 -243 -548 -515 -114 -228 -174 -455 -195
-739 -9 -126 -13 -149 -30 -161 -15 -11 -19 -26 -19 -81 0 -114 45 -336 76
-370 12 -14 10 -18 -16 -33 -33 -20 -65 -68 -75 -114 -13 -62 29 -169 101
-259 23 -28 31 -48 27 -62 -4 -17 9 -36 57 -84 34 -34 71 -82 81 -106 l19 -44
-89 -94 c-141 -147 -176 -211 -135 -245 18 -15 102 -1 187 31 35 14 55 16 68
10 12 -7 38 -4 84 11 l66 20 49 -44 c91 -82 251 -150 391 -165 l64 -7 27 -51
c88 -164 70 -341 -45 -439 -41 -35 -151 -96 -214 -120 -37 -13 -36 -14 54 -14
87 -1 96 1 143 30 68 42 146 131 171 199 32 81 29 179 -10 305 -17 54 -29 100
-28 101 1 1 16 9 34 18 17 9 52 36 77 61 26 25 55 45 66 45 65 0 238 150 280
241 32 72 22 156 -35 298 -14 35 -24 65 -22 68 3 2 12 -14 20 -35 18 -44 40
-52 147 -52 122 0 223 43 318 134 75 72 108 124 118 186 4 25 11 47 15 50 14
9 36 111 44 198 5 63 11 82 22 82 10 0 13 6 9 16 -5 14 -4 15 8 5 32 -27 53
-4 65 69 16 97 15 110 -9 110 -20 0 -20 5 -15 118 9 187 -23 324 -106 452
l-40 61 31 39 c48 60 80 139 80 195 0 105 -66 156 -212 163 -48 2 -91 9 -96
16 -5 6 -21 44 -36 83 -24 64 -32 74 -59 81 -22 6 -42 24 -68 61 -91 131 -214
219 -339 241 -92 16 -408 50 -458 49 -26 0 -71 -6 -100 -13z m388 -381 c32
-20 76 -41 97 -48 46 -16 71 -60 103 -182 11 -44 24 -87 29 -96 7 -12 -1 -21
-36 -39 -24 -13 -62 -43 -83 -68 -37 -42 -80 -133 -80 -170 0 -12 -21 -27 -65
-46 -60 -26 -157 -99 -153 -114 2 -4 -6 -19 -16 -34 -10 -15 -20 -40 -24 -55
-10 -43 -5 -352 6 -405 10 -53 7 -56 -40 -32 -55 29 -217 64 -293 64 l-73 0
-4 73 c-5 75 -6 71 92 487 60 258 162 462 297 592 47 46 145 107 172 108 7 0
40 -16 71 -35z m876 -206 c87 -41 82 -142 -13 -267 l-25 -33 -22 20 c-12 11
-57 40 -99 65 l-77 44 30 12 c38 16 46 45 31 117 -6 31 -11 61 -11 66 0 16
141 -2 186 -24z m-332 -296 c54 -13 106 -35 144 -61 10 -7 6 -14 -18 -29 l-32
-20 -61 20 c-51 17 -86 21 -199 20 -76 0 -154 -4 -175 -8 l-38 -7 30 32 c33
35 74 59 120 71 39 10 155 1 229 -18z m251 -163 c65 -84 112 -191 130 -295 16
-93 20 -195 8 -195 -5 0 -16 46 -25 103 -31 190 -93 324 -177 383 -22 16 -41
32 -41 35 0 6 39 27 52 28 4 1 28 -26 53 -59z m-995 -160 c-6 -11 -13 -20 -16
-20 -2 0 0 9 6 20 6 11 13 20 16 20 2 0 0 -9 -6 -20z m1033 -758 c3 -62 2
-110 -3 -107 -5 3 -8 13 -8 23 1 9 -2 82 -5 162 -4 90 -3 124 2 90 5 -30 11
-106 14 -168z m55 -2 c0 -19 -6 8 -14 60 -7 52 -12 111 -12 130 0 19 6 -8 14
-60 7 -52 12 -111 12 -130z m-1804 -58 c-12 -9 -40 -41 -62 -70 -31 -40 -40
-60 -37 -80 2 -15 6 -56 9 -92 3 -56 3 -60 -6 -30 -6 19 -19 56 -29 82 -22 54
-24 112 -6 148 16 32 71 60 117 60 35 0 35 -1 14 -18z m1121 -125 c13 -31 22
-57 20 -57 -5 0 -55 107 -55 118 0 12 11 -7 35 -61z m-465 -54 c66 -72 125
-152 134 -181 11 -33 3 -27 -35 26 -18 26 -61 79 -94 117 -69 80 -80 95 -67
95 6 0 34 -26 62 -57z m526 -90 c-5 -5 -36 62 -36 76 1 3 10 -11 21 -32 11
-22 18 -41 15 -44z m-1014 -195 c40 -22 110 -58 154 -79 45 -20 84 -41 87 -47
8 -11 -232 106 -288 142 -63 40 -34 30 47 -16z m283 -209 c5 -6 -49 19 -122
55 -72 36 -134 69 -136 73 -7 11 245 -115 258 -128z m-382 20 c20 -33 35 -65
31 -70 -3 -5 -23 -18 -44 -29 -21 -11 -40 -24 -42 -30 -6 -20 -208 -81 -208
-63 0 20 48 82 127 164 47 49 89 89 92 89 3 0 23 -28 44 -61z m393 -87 c-5 -4
-168 76 -181 89 -5 6 34 -11 87 -37 54 -27 96 -50 94 -52z"/>
</g>
</svg>
