<?xml version="1.0" standalone="no"?>
<!DOCTYPE svg PUBLIC "-//W3C//DTD SVG 20010904//EN"
 "http://www.w3.org/TR/2001/REC-SVG-20010904/DTD/svg10.dtd">
<svg version="1.0" xmlns="http://www.w3.org/2000/svg"
 width="395.000000pt" height="395.000000pt" viewBox="0 0 395.000000 395.000000"
 preserveAspectRatio="xMidYMid meet">

<g transform="translate(0.000000,395.000000) scale(0.100000,-0.100000)"
fill="#000000" stroke="none">
<path d="M2158 3495 c-92 -18 -221 -63 -297 -106 -177 -99 -354 -279 -461
-468 -30 -52 -38 -61 -57 -56 -18 4 -25 -2 -44 -42 -35 -77 -88 -241 -101
-310 -14 -75 -13 -76 70 -94 63 -15 68 -29 10 -29 -116 -1 -220 -109 -263
-275 -16 -63 -20 -267 -6 -362 6 -45 5 -55 -11 -65 -17 -13 -17 -16 3 -88 15
-54 23 -124 29 -250 11 -242 31 -312 109 -383 47 -42 80 -61 139 -77 24 -6 69
-24 100 -40 81 -40 115 -49 238 -64 168 -20 276 1 363 72 l25 19 27 -56 c14
-32 44 -72 67 -92 59 -50 51 -74 -46 -132 -159 -96 -327 -162 -490 -193 -115
-22 -386 -22 -537 1 -163 24 -155 20 -155 69 0 53 -29 100 -77 124 -35 18
-198 71 -266 88 -94 22 -197 -67 -197 -171 0 -52 32 -107 77 -132 59 -34 262
-103 301 -103 49 0 93 24 125 69 26 37 29 39 60 30 132 -38 513 -52 673 -24
164 29 400 124 542 219 30 20 59 33 68 29 8 -3 33 3 55 13 39 17 42 17 108 -4
37 -12 78 -22 92 -22 52 0 53 -10 19 -121 -33 -106 -114 -319 -148 -386 -11
-21 -23 -48 -26 -60 -7 -21 -4 -23 33 -23 48 0 45 -4 125 193 30 74 59 143 65
153 6 11 31 66 55 124 42 101 44 105 72 103 189 -15 248 0 338 91 71 72 143
197 207 361 23 61 55 129 71 152 30 45 34 59 17 65 -7 2 4 28 26 63 128 200
184 426 141 570 -14 44 -13 49 5 69 11 11 36 52 55 90 36 72 44 130 22 169
l-12 22 -7 -25 c-3 -14 -4 25 -1 86 6 145 -2 198 -32 212 -19 8 -25 21 -31 64
-43 321 -222 603 -475 751 -63 37 -340 145 -430 168 -101 26 -264 33 -362 14z
m405 -370 c92 -24 183 -91 252 -184 19 -26 63 -102 99 -170 36 -67 86 -148
111 -181 l45 -58 0 -109 c-1 -59 -7 -144 -15 -188 -8 -44 -15 -85 -15 -91 0
-6 27 -19 60 -29 63 -19 70 -35 16 -35 -44 0 -142 -50 -138 -71 2 -17 -85
-105 -95 -95 -3 3 6 19 21 36 26 32 26 56 0 46 -15 -6 -97 47 -88 57 14 14
-80 32 -171 32 -91 0 -105 -3 -158 -29 -119 -61 -184 -162 -322 -506 -36 -90
-67 -165 -68 -166 -1 -1 -2 102 -2 229 0 200 -3 242 -20 307 -16 62 -27 82
-62 117 -24 22 -43 48 -43 57 0 9 -3 16 -8 16 -4 0 -12 10 -17 23 -6 12 -17
21 -26 19 -9 -1 -24 9 -33 23 -18 27 -9 32 27 14 22 -10 22 -10 2 7 -34 28
-98 54 -135 54 -80 1 -79 -2 -77 129 2 106 0 119 -20 144 -19 25 -23 26 -31
11 -6 -11 -5 -29 5 -54 11 -28 13 -57 6 -131 l-8 -94 -49 -3 c-26 -2 -71 2
-99 8 -28 6 -98 13 -156 15 -126 6 -173 13 -167 24 3 5 -6 7 -20 5 -25 -2 -25
-2 -7 18 27 31 72 51 133 61 82 13 110 11 175 -12 61 -21 135 -28 135 -12 0 5
-7 11 -15 15 -27 10 -14 91 14 91 8 0 18 12 22 28 4 16 4 25 -2 21 -15 -9 0
43 32 111 21 44 25 61 16 67 -7 5 -1 8 16 8 33 0 125 68 250 187 155 146 271
211 442 247 46 9 134 5 188 -9z m-1175 -896 c-7 -4 -4 -8 8 -11 16 -3 14 -7
-12 -20 -17 -9 -36 -24 -43 -32 -8 -9 -23 -16 -35 -16 -31 0 -126 -47 -126
-63 0 -7 -14 -35 -32 -63 -17 -27 -40 -71 -50 -99 l-19 -50 5 55 c9 112 67
229 140 282 36 26 47 28 108 26 37 -1 63 -5 56 -9z m2089 -106 c-3 -10 -5 -4
-5 12 0 17 2 24 5 18 2 -7 2 -21 0 -30z m-10 -45 c-3 -8 -6 -5 -6 6 -1 11 2
17 5 13 3 -3 4 -12 1 -19z m-55 -82 c-9 -17 -15 -35 -14 -40 2 -4 -20 14 -48
40 -27 27 -50 52 -50 55 0 4 29 -1 64 -9 l65 -16 -17 -30z m-277 -106 c-14
-15 -21 -17 -32 -9 -22 19 -15 29 19 29 30 0 31 0 13 -20z m-1462 -5 c4 -8 2
-17 -2 -19 -24 -15 -57 -378 -49 -533 5 -106 26 -153 94 -210 l46 -40 -33 2
c-42 3 -80 44 -107 118 -20 52 -21 71 -16 289 5 238 9 312 18 338 21 59 27 70
35 70 5 0 11 -7 14 -15z m1649 -133 c9 -35 8 -73 -1 -165 -18 -167 -26 -184
-26 -59 0 92 -3 113 -23 149 -39 75 -77 108 -167 149 -47 21 -85 42 -85 46 0
15 35 8 78 -17 l44 -25 33 36 34 36 51 -52 c36 -37 53 -65 62 -98z m-651 -199
c-70 -120 -93 -153 -103 -147 -5 3 -2 15 9 27 10 12 23 27 28 33 6 6 27 39 48
73 20 33 39 61 42 61 2 0 -8 -21 -24 -47z m312 -240 c-3 -13 -1 -23 6 -23 6 0
8 8 5 18 -4 9 5 4 20 -13 14 -16 23 -36 21 -43 -3 -7 -1 -11 4 -8 14 9 50 -38
54 -69 3 -17 2 -22 0 -12 -2 9 -9 15 -14 12 -5 -3 -6 2 -3 12 5 17 5 17 -9 1
-13 -16 -16 -15 -44 15 -42 44 -52 67 -57 128 -3 48 -2 50 10 28 7 -13 10 -34
7 -46z m37 -180 c30 -34 40 -54 39 -77 l-2 -31 -6 30 c-3 18 -13 31 -23 33
-13 2 -16 -2 -11 -15 4 -11 -3 -7 -15 9 -24 28 -28 48 -12 48 6 0 10 -6 8 -12
-3 -13 3 -18 24 -18 6 0 1 11 -12 25 -21 23 -24 23 -36 7 -11 -14 -13 -15 -17
-2 -20 61 -13 118 9 75 7 -15 32 -47 54 -72z m-11 -153 c-1 -10 -3 -9 -6 3 -4
15 -7 16 -21 5 -16 -12 -16 -11 -2 6 14 17 13 18 -7 12 -13 -4 -24 -2 -29 5
-5 9 -2 10 9 6 10 -3 17 -2 17 2 0 5 -6 11 -14 14 -7 3 -16 15 -19 26 -4 16 6
9 34 -21 21 -24 38 -50 38 -58z"/>
<path d="M2995 1269 c-6 -8 -4 -10 5 -4 10 6 12 4 6 -11 -6 -15 -5 -17 5 -6 9
9 10 15 2 23 -8 8 -13 7 -18 -2z"/>
<path d="M3044 1226 c6 -17 5 -17 -10 -5 -16 13 -16 12 -5 -8 13 -25 26 -29
37 -12 3 6 -2 18 -11 27 -17 16 -17 16 -11 -2z"/>
</g>
</svg>
